<svg width="71" height="42" viewBox="0 0 71 42" fill="none" xmlns="http://www.w3.org/2000/svg">
<g filter="url(#filter0_d_2020_323)">
<path d="M5.60842 32.8373C3.1129 34.2845 9.10216 25.6016 9.10216 25.6016V4.37668L13.5941 1H61.0091L66.0001 3.8943V25.6016L61.0091 28.0135H13.5941C13.5941 28.0135 8.10395 31.3902 5.60842 32.8373Z" fill="#EAE9E9"/>
<path d="M9.10216 25.6016L9.92533 26.1694L10.1022 25.913V25.6016H9.10216ZM5.60842 32.8373L5.10677 31.9722L5.10677 31.9722L5.60842 32.8373ZM13.5941 28.0135V27.0135H13.3112L13.0702 27.1617L13.5941 28.0135ZM61.0091 28.0135V29.0135H61.238L61.4442 28.9138L61.0091 28.0135ZM66.0001 25.6016L66.4352 26.5019L67.0001 26.2289V25.6016H66.0001ZM66.0001 3.8943H67.0001V3.31822L66.5018 3.02923L66.0001 3.8943ZM61.0091 1L61.5107 0.13493L61.2781 0H61.0091V1ZM13.5941 1V0H13.2602L12.9932 0.20066L13.5941 1ZM9.10216 4.37668L8.50128 3.57734L8.10216 3.87737V4.37668H9.10216ZM9.10216 25.6016C8.27899 25.0338 8.27894 25.0338 8.27886 25.0339C8.2788 25.034 8.2787 25.0342 8.27859 25.0343C8.27837 25.0347 8.27805 25.0351 8.27764 25.0357C8.27683 25.0369 8.27566 25.0386 8.27414 25.0408C8.27109 25.0452 8.26663 25.0517 8.26082 25.0602C8.24919 25.0771 8.23214 25.1019 8.21012 25.1341C8.16607 25.1985 8.10209 25.2924 8.02172 25.411C7.86103 25.6483 7.63459 25.9851 7.3708 26.3847C6.84441 27.182 6.16429 28.2365 5.56036 29.2503C4.97234 30.2374 4.40491 31.27 4.15617 31.9912C4.09247 32.1759 4.03207 32.3887 4.00963 32.6025C3.99201 32.7704 3.96816 33.1809 4.24542 33.5463C4.59871 34.012 5.11925 34.0289 5.40454 33.9803C5.67355 33.9344 5.91901 33.8132 6.11008 33.7024L5.60842 32.8373L5.10677 31.9722C4.9859 32.0423 4.9857 32.0228 5.06828 32.0088C5.16714 31.9919 5.56046 31.9707 5.8387 32.3374C5.94746 32.4808 5.98151 32.6185 5.99281 32.6906C6.00413 32.7628 5.99902 32.8083 5.9987 32.8113C5.99843 32.8139 6.00529 32.7639 6.04688 32.6433C6.21925 32.1435 6.68123 31.2766 7.27858 30.2739C7.86002 29.2979 8.52125 28.2721 9.03986 27.4866C9.29857 27.0947 9.52055 26.7645 9.67764 26.5326C9.75617 26.4167 9.81843 26.3254 9.8609 26.2633C9.88213 26.2322 9.89841 26.2085 9.90929 26.1927C9.91474 26.1847 9.91883 26.1788 9.92152 26.1749C9.92287 26.1729 9.92386 26.1715 9.9245 26.1706C9.92482 26.1701 9.92505 26.1698 9.92518 26.1696C9.92525 26.1695 9.92529 26.1694 9.92532 26.1694C9.92534 26.1693 9.92533 26.1694 9.10216 25.6016ZM5.60842 32.8373L6.11008 33.7024C7.36829 32.9727 9.37333 31.7615 11.0569 30.737C11.9002 30.2238 12.6653 29.756 13.2196 29.4164C13.4968 29.2466 13.7213 29.1089 13.8765 29.0136C13.9542 28.9659 14.0145 28.9289 14.0554 28.9037C14.0759 28.8912 14.0915 28.8816 14.102 28.8751C14.1073 28.8719 14.1113 28.8694 14.1139 28.8678C14.1153 28.8669 14.1163 28.8663 14.117 28.8659C14.1173 28.8657 14.1175 28.8655 14.1177 28.8654C14.1178 28.8654 14.1179 28.8653 14.1179 28.8653C14.118 28.8653 14.118 28.8653 13.5941 28.0135C13.0702 27.1617 13.0702 27.1617 13.0702 27.1617C13.0701 27.1617 13.0701 27.1618 13.07 27.1618C13.0698 27.1619 13.0696 27.1621 13.0693 27.1623C13.0686 27.1627 13.0676 27.1633 13.0663 27.1641C13.0637 27.1657 13.0598 27.1681 13.0546 27.1713C13.0441 27.1777 13.0286 27.1873 13.0083 27.1998C12.9676 27.2248 12.9075 27.2617 12.8301 27.3092C12.6754 27.4042 12.4515 27.5416 12.1749 27.711C11.6218 28.0498 10.8584 28.5166 10.0172 29.0284C8.33189 30.054 6.34408 31.2547 5.10677 31.9722L5.60842 32.8373ZM13.5941 28.0135V29.0135H61.0091V28.0135V27.0135H13.5941V28.0135ZM61.0091 28.0135L61.4442 28.9138L66.4352 26.5019L66.0001 25.6016L65.565 24.7012L60.574 27.1131L61.0091 28.0135ZM66.0001 25.6016H67.0001V3.8943H66.0001H65.0001V25.6016H66.0001ZM66.0001 3.8943L66.5018 3.02923L61.5107 0.13493L61.0091 1L60.5074 1.86507L65.4985 4.75937L66.0001 3.8943ZM61.0091 1V0H13.5941V1V2H61.0091V1ZM13.5941 1L12.9932 0.20066L8.50128 3.57734L9.10216 4.37668L9.70304 5.17602L14.195 1.79934L13.5941 1ZM9.10216 4.37668H8.10216V25.6016H9.10216H10.1022V4.37668H9.10216Z" fill="#204944"/>
</g>
<path d="M20.5361 19C20.2321 19 20.0121 18.956 19.8761 18.868C19.7401 18.772 19.6561 18.68 19.6241 18.592C19.5921 18.504 19.5761 18.46 19.5761 18.46C19.5761 18.46 19.5721 18.364 19.5641 18.172C19.5641 17.972 19.5601 17.712 19.5521 17.392C19.5521 17.072 19.5481 16.72 19.5401 16.336C19.5321 15.952 19.5241 15.568 19.5161 15.184C19.5161 14.8 19.5121 14.448 19.5041 14.128C19.4961 13.808 19.4881 13.552 19.4801 13.36C19.4801 13.16 19.4801 13.06 19.4801 13.06C19.4721 13.06 19.4281 13.02 19.3481 12.94C19.2761 12.86 19.2361 12.776 19.2281 12.688C19.2281 12.624 19.3041 12.532 19.4561 12.412C19.6081 12.292 19.8641 12.192 20.2241 12.112C20.5921 12.024 21.0961 12.008 21.7361 12.064C22.3121 12.112 22.7641 12.208 23.0921 12.352C23.4281 12.488 23.6721 12.636 23.8241 12.796C23.9761 12.948 24.0721 13.084 24.1121 13.204C24.1521 13.316 24.1721 13.372 24.1721 13.372C24.1721 13.372 24.1761 13.384 24.1841 13.408C24.2001 13.432 24.2121 13.508 24.2201 13.636C24.2361 13.756 24.2481 13.956 24.2561 14.236C24.2641 14.516 24.2641 14.908 24.2561 15.412C24.2481 15.82 24.1521 16.144 23.9681 16.384C23.7921 16.624 23.5721 16.804 23.3081 16.924C23.0441 17.036 22.7801 17.112 22.5161 17.152C22.2601 17.184 22.0441 17.2 21.8681 17.2C21.6921 17.192 21.6041 17.188 21.6041 17.188C21.6041 17.188 21.6041 17.276 21.6041 17.452C21.6121 17.62 21.6121 17.904 21.6041 18.304C21.6041 18.504 21.5481 18.656 21.4361 18.76C21.3321 18.856 21.2081 18.92 21.0641 18.952C20.9281 18.984 20.8041 19 20.6921 19C20.5881 19 20.5361 19 20.5361 19ZM21.4841 13.18L21.5921 16.156C21.5921 16.156 21.6441 16.152 21.7481 16.144C21.8521 16.128 21.9721 16.088 22.1081 16.024C22.2441 15.96 22.3601 15.852 22.4561 15.7C22.5601 15.54 22.6041 15.316 22.5881 15.028C22.5721 14.644 22.5561 14.356 22.5401 14.164C22.5241 13.972 22.5121 13.848 22.5041 13.792C22.5041 13.728 22.5041 13.696 22.5041 13.696C22.5041 13.696 22.4961 13.664 22.4801 13.6C22.4721 13.528 22.4401 13.452 22.3841 13.372C22.3281 13.292 22.2281 13.232 22.0841 13.192C21.9481 13.144 21.7481 13.14 21.4841 13.18ZM27.2314 14.044C27.6314 14.036 27.9714 14.072 28.2514 14.152C28.5314 14.224 28.7634 14.312 28.9474 14.416C29.1314 14.52 29.2754 14.612 29.3794 14.692C29.4834 14.772 29.5594 14.812 29.6074 14.812C29.6954 14.82 29.7594 14.864 29.7994 14.944C29.8394 15.016 29.8594 15.052 29.8594 15.052C29.8594 15.052 29.8714 15.132 29.8954 15.292C29.9194 15.452 29.9474 15.656 29.9794 15.904C30.0194 16.152 30.0554 16.412 30.0874 16.684C30.1194 16.956 30.1474 17.212 30.1714 17.452C30.1954 17.692 30.2074 17.88 30.2074 18.016C30.2074 18.24 30.1914 18.42 30.1594 18.556C30.1354 18.692 30.0554 18.796 29.9194 18.868C29.7834 18.932 29.5594 18.976 29.2474 19C29.0154 19.016 28.8474 19.012 28.7434 18.988C28.6394 18.964 28.5754 18.936 28.5514 18.904C28.5274 18.872 28.5154 18.856 28.5154 18.856C28.4434 18.912 28.3234 18.952 28.1554 18.976C27.9954 18.992 27.8434 19 27.6994 19C27.5554 19 27.4834 19 27.4834 19C27.4834 19 27.3914 18.988 27.2074 18.964C27.0234 18.932 26.7954 18.872 26.5234 18.784C26.2594 18.688 25.9914 18.548 25.7194 18.364C25.4554 18.172 25.2354 17.92 25.0594 17.608C24.8834 17.288 24.7994 16.892 24.8074 16.42C24.8154 15.948 24.9034 15.564 25.0714 15.268C25.2394 14.964 25.4434 14.728 25.6834 14.56C25.9234 14.392 26.1594 14.272 26.3914 14.2C26.6314 14.128 26.8314 14.084 26.9914 14.068C27.1514 14.052 27.2314 14.044 27.2314 14.044ZM28.1314 15.28C28.0914 15.224 28.0034 15.164 27.8674 15.1C27.7394 15.028 27.6154 14.968 27.4954 14.92C27.3834 14.872 27.3274 14.856 27.3274 14.872C27.3274 14.88 27.2834 14.948 27.1954 15.076C27.1154 15.196 27.0314 15.376 26.9434 15.616C26.8634 15.848 26.8194 16.128 26.8114 16.456C26.8034 16.784 26.8474 17.068 26.9434 17.308C27.0394 17.548 27.1554 17.732 27.2914 17.86C27.4354 17.988 27.5674 18.052 27.6874 18.052C27.7754 18.052 27.8594 18.012 27.9394 17.932C28.0194 17.844 28.0874 17.748 28.1434 17.644C28.1994 17.532 28.2434 17.436 28.2754 17.356C28.3074 17.276 28.3234 17.236 28.3234 17.236L28.1314 15.28ZM30.7488 14.848C30.7488 14.848 30.7488 14.812 30.7488 14.74C30.7568 14.668 30.7848 14.588 30.8328 14.5C30.8808 14.404 30.9688 14.32 31.0968 14.248C31.2328 14.176 31.4248 14.14 31.6728 14.14C31.9768 14.14 32.1928 14.184 32.3208 14.272C32.4568 14.352 32.5368 14.452 32.5608 14.572C32.5928 14.684 32.6008 14.796 32.5848 14.908C32.5688 15.012 32.5608 15.084 32.5608 15.124C32.5608 15.156 32.5608 15.276 32.5608 15.484C32.5688 15.684 32.5848 15.924 32.6088 16.204C32.6328 16.484 32.6728 16.76 32.7288 17.032C32.7848 17.304 32.8648 17.532 32.9688 17.716C33.0728 17.892 33.2088 17.976 33.3768 17.968C33.5448 17.96 33.6568 17.872 33.7128 17.704C33.7688 17.536 33.7888 17.328 33.7728 17.08C33.7648 16.832 33.7368 16.584 33.6888 16.336C33.6408 16.088 33.5928 15.876 33.5448 15.7C33.4968 15.516 33.4728 15.412 33.4728 15.388C33.4728 15.356 33.4608 15.3 33.4368 15.22C33.4208 15.132 33.4208 15.036 33.4368 14.932C33.4608 14.828 33.5288 14.732 33.6408 14.644C33.7528 14.556 33.9368 14.5 34.1928 14.476C34.4488 14.452 34.6488 14.468 34.7928 14.524C34.9448 14.572 35.0528 14.636 35.1168 14.716C35.1888 14.796 35.2328 14.872 35.2488 14.944C35.2648 15.008 35.2728 15.04 35.2728 15.04C35.2728 15.04 35.3008 15.136 35.3568 15.328C35.4128 15.52 35.4648 15.768 35.5128 16.072C35.5608 16.368 35.5768 16.684 35.5608 17.02C35.5528 17.356 35.4808 17.676 35.3448 17.98C35.2168 18.276 35.0008 18.52 34.6968 18.712C34.4008 18.904 33.9848 19 33.4488 19C32.9128 19 32.4728 18.9 32.1288 18.7C31.7848 18.5 31.5128 18.244 31.3128 17.932C31.1208 17.612 30.9808 17.276 30.8928 16.924C30.8048 16.572 30.7528 16.24 30.7368 15.928C30.7208 15.608 30.7168 15.348 30.7248 15.148C30.7408 14.948 30.7488 14.848 30.7488 14.848ZM38.7085 17.08C38.1085 17.064 37.6405 17.004 37.3045 16.9C36.9685 16.796 36.7285 16.672 36.5845 16.528C36.4485 16.384 36.3645 16.244 36.3325 16.108C36.3005 15.964 36.2845 15.852 36.2845 15.772C36.2845 15.692 36.2965 15.568 36.3205 15.4C36.3445 15.232 36.4205 15.056 36.5485 14.872C36.6765 14.688 36.8965 14.528 37.2085 14.392C37.5285 14.256 37.9805 14.18 38.5645 14.164C39.2045 14.148 39.6965 14.184 40.0405 14.272C40.3845 14.36 40.6285 14.464 40.7725 14.584C40.9245 14.704 41.0165 14.812 41.0485 14.908C41.0805 14.996 41.0965 15.04 41.0965 15.04C41.0965 15.144 41.0845 15.252 41.0605 15.364C41.0365 15.468 40.9645 15.556 40.8445 15.628C40.7325 15.692 40.5365 15.72 40.2565 15.712C40.0325 15.704 39.8645 15.684 39.7525 15.652C39.6405 15.62 39.5565 15.584 39.5005 15.544C39.4525 15.496 39.4005 15.448 39.3445 15.4C39.2965 15.352 39.2205 15.312 39.1165 15.28C39.0205 15.248 38.8645 15.228 38.6485 15.22C38.3845 15.212 38.1845 15.232 38.0485 15.28C37.9205 15.32 37.8325 15.372 37.7845 15.436C37.7445 15.5 37.7205 15.556 37.7125 15.604C37.7125 15.644 37.7125 15.664 37.7125 15.664C37.7125 15.664 37.7205 15.696 37.7365 15.76C37.7605 15.824 37.8405 15.888 37.9765 15.952C38.1205 16.016 38.3765 16.052 38.7445 16.06C39.4405 16.084 39.9725 16.152 40.3405 16.264C40.7165 16.368 40.9805 16.492 41.1325 16.636C41.2925 16.78 41.3845 16.924 41.4085 17.068C41.4405 17.204 41.4565 17.312 41.4565 17.392C41.4565 17.472 41.4285 17.596 41.3725 17.764C41.3245 17.932 41.2165 18.108 41.0485 18.292C40.8805 18.476 40.6205 18.636 40.2685 18.772C39.9245 18.908 39.4605 18.984 38.8765 19C38.2445 19.016 37.7525 18.98 37.4005 18.892C37.0565 18.804 36.8085 18.7 36.6565 18.58C36.5125 18.46 36.4245 18.356 36.3925 18.268C36.3605 18.172 36.3445 18.124 36.3445 18.124C36.3445 18.012 36.3565 17.904 36.3805 17.8C36.4125 17.696 36.4845 17.612 36.5965 17.548C36.7165 17.476 36.9125 17.444 37.1845 17.452C37.4165 17.46 37.5845 17.48 37.6885 17.512C37.8005 17.544 37.8845 17.584 37.9405 17.632C37.9965 17.672 38.0485 17.716 38.0965 17.764C38.1445 17.812 38.2205 17.852 38.3245 17.884C38.4285 17.916 38.5845 17.936 38.7925 17.944C39.0565 17.952 39.2525 17.936 39.3805 17.896C39.5165 17.848 39.6085 17.792 39.6565 17.728C39.7045 17.664 39.7285 17.612 39.7285 17.572C39.7285 17.524 39.7285 17.5 39.7285 17.5C39.7285 17.5 39.7205 17.468 39.7045 17.404C39.6885 17.332 39.6085 17.264 39.4645 17.2C39.3285 17.128 39.0765 17.088 38.7085 17.08ZM46.8111 15.376C46.7871 15.776 46.6751 16.1 46.4751 16.348C46.2751 16.588 46.0311 16.772 45.7431 16.9C45.4631 17.02 45.1831 17.104 44.9031 17.152C44.6231 17.192 44.3871 17.212 44.1951 17.212C44.0111 17.212 43.9191 17.212 43.9191 17.212C43.9671 17.492 44.0351 17.692 44.1231 17.812C44.2111 17.932 44.3071 18 44.4111 18.016C44.5231 18.032 44.6271 18.024 44.7231 17.992C44.8191 17.952 44.8951 17.908 44.9511 17.86C45.0151 17.812 45.0471 17.788 45.0471 17.788C45.0471 17.788 45.0911 17.752 45.1791 17.68C45.2671 17.608 45.4031 17.54 45.5871 17.476C45.7791 17.404 46.0191 17.368 46.3071 17.368C46.6351 17.368 46.8551 17.412 46.9671 17.5C47.0871 17.58 47.1431 17.676 47.1351 17.788C47.1351 17.892 47.1111 17.988 47.0631 18.076C47.0231 18.156 47.0031 18.196 47.0031 18.196C47.0031 18.196 46.9671 18.236 46.8951 18.316C46.8311 18.388 46.7111 18.476 46.5351 18.58C46.3591 18.684 46.1151 18.78 45.8031 18.868C45.4911 18.948 45.0911 18.992 44.6031 19C44.1311 19.008 43.7351 18.944 43.4151 18.808C43.0951 18.672 42.8311 18.496 42.6231 18.28C42.4151 18.056 42.2551 17.824 42.1431 17.584C42.0391 17.336 41.9631 17.108 41.9151 16.9C41.8751 16.684 41.8551 16.516 41.8551 16.396C41.8551 16.276 41.8631 16.12 41.8791 15.928C41.9031 15.736 41.9551 15.536 42.0351 15.328C42.1231 15.112 42.2551 14.908 42.4311 14.716C42.6071 14.524 42.8471 14.368 43.1511 14.248C43.4631 14.128 43.8591 14.064 44.3391 14.056C44.9391 14.048 45.4071 14.1 45.7431 14.212C46.0791 14.324 46.3231 14.46 46.4751 14.62C46.6271 14.78 46.7191 14.932 46.7511 15.076C46.7911 15.22 46.8111 15.32 46.8111 15.376ZM43.7511 16.384C44.2391 16.344 44.6031 16.24 44.8431 16.072C45.0831 15.904 45.2231 15.716 45.2631 15.508C45.3031 15.3 45.2631 15.124 45.1431 14.98C45.0311 14.828 44.8591 14.76 44.6271 14.776C44.3951 14.784 44.2191 14.872 44.0991 15.04C43.9791 15.2 43.8951 15.388 43.8471 15.604C43.7991 15.812 43.7711 15.996 43.7631 16.156C43.7551 16.308 43.7511 16.384 43.7511 16.384ZM51.7604 11.176C51.7604 11.176 51.8084 11.184 51.9044 11.2C52.0084 11.208 52.1244 11.232 52.2524 11.272C52.3804 11.304 52.4964 11.36 52.6004 11.44C52.7124 11.512 52.7724 11.616 52.7804 11.752C52.7884 11.84 52.8004 12.032 52.8164 12.328C52.8324 12.616 52.8484 12.96 52.8644 13.36C52.8884 13.76 52.9084 14.176 52.9244 14.608C52.9484 15.032 52.9684 15.432 52.9844 15.808C53.0004 16.176 53.0124 16.476 53.0204 16.708C53.0364 16.94 53.0444 17.056 53.0444 17.056C53.0444 17.056 53.0404 17.104 53.0324 17.2C53.0324 17.296 53.0084 17.416 52.9604 17.56C52.9204 17.704 52.8444 17.844 52.7324 17.98C52.4924 18.276 52.1884 18.52 51.8204 18.712C51.4524 18.904 50.9484 19 50.3084 19C49.8844 19 49.4764 18.92 49.0844 18.76C48.7004 18.6 48.3844 18.348 48.1364 18.004C47.8964 17.652 47.7804 17.196 47.7884 16.636C47.7964 16.212 47.8884 15.84 48.0644 15.52C48.2484 15.2 48.4884 14.936 48.7844 14.728C49.0804 14.512 49.4084 14.352 49.7684 14.248C50.1364 14.144 50.5044 14.092 50.8724 14.092L50.7884 12.016C50.7884 12.016 50.7804 11.98 50.7644 11.908C50.7484 11.828 50.7564 11.736 50.7884 11.632C50.8284 11.528 50.9204 11.432 51.0644 11.344C51.2084 11.256 51.4404 11.2 51.7604 11.176ZM50.9084 15.136C50.7244 15.12 50.5484 15.188 50.3804 15.34C50.2124 15.492 50.0724 15.688 49.9604 15.928C49.8564 16.16 49.8044 16.392 49.8044 16.624C49.8044 16.968 49.8604 17.264 49.9724 17.512C50.0924 17.76 50.2484 17.884 50.4404 17.884C50.5684 17.884 50.6764 17.832 50.7644 17.728C50.8524 17.624 50.9204 17.52 50.9684 17.416C51.0164 17.304 51.0404 17.248 51.0404 17.248L50.9084 15.136Z" fill="#204944"/>
<defs>
<filter id="filter0_d_2020_323" x="0" y="0" width="71.0001" height="41.9988" filterUnits="userSpaceOnUse" color-interpolation-filters="sRGB">
<feFlood flood-opacity="0" result="BackgroundImageFix"/>
<feColorMatrix in="SourceAlpha" type="matrix" values="0 0 0 0 0 0 0 0 0 0 0 0 0 0 0 0 0 0 127 0" result="hardAlpha"/>
<feOffset dy="4"/>
<feGaussianBlur stdDeviation="2"/>
<feComposite in2="hardAlpha" operator="out"/>
<feColorMatrix type="matrix" values="0 0 0 0 0 0 0 0 0 0 0 0 0 0 0 0 0 0 0.25 0"/>
<feBlend mode="normal" in2="BackgroundImageFix" result="effect1_dropShadow_2020_323"/>
<feBlend mode="normal" in="SourceGraphic" in2="effect1_dropShadow_2020_323" result="shape"/>
</filter>
</defs>
</svg>
