<svg width="160" height="157" viewBox="0 0 160 157" fill="none" xmlns="http://www.w3.org/2000/svg">
<g clip-path="url(#clip0_2018_274)">
<path d="M92 5C84.1338 9.45648 81.8078 14.2966 79.5 25" stroke="#267E3F" stroke-width="10" stroke-linecap="round"/>
<mask id="mask0_2018_274" style="mask-type:alpha" maskUnits="userSpaceOnUse" x="0" y="25" width="160" height="132">
<path d="M160 91C160 127.451 124.183 157 80 157C35.8172 157 0 127.451 0 91C0 54.5492 35.8172 25 80 25C124.183 25 160 54.5492 160 91Z" fill="#CC3131"/>
</mask>
<g mask="url(#mask0_2018_274)">
<mask id="path-4-inside-1_2018_274" fill="white">
<path d="M-5.5 5.3913H65.5V171.826H-5.5V5.3913Z"/>
</mask>
<path d="M-5.5 5.3913H65.5V171.826H-5.5V5.3913Z" fill="#D64848"/>
<path d="M-5.5 5.3913C2.41449 5.3913 10.329 5.3913 18.2435 5.3913C33.2649 5.3913 48.2862 5.3913 63.3076 5.3913C64.0384 5.3913 64.7692 5.3913 65.5 5.39131C65.4992 60.8696 65.4705 116.348 65.4138 171.826L65.5 171.74C41.8333 171.716 18.1667 171.686 -5.5 171.652L-5.32588 171.826C-5.25675 124.262 -5.16705 76.6985 -5.05676 29.1348C-5.03841 21.2203 -5.01949 13.3058 -5 5.3913C-5.33333 5.3913 -5.66667 5.3913 -6 5.3913C-5.98051 13.3058 -5.96159 21.2203 -5.94324 29.1348C-5.83295 76.6985 -5.74325 124.262 -5.67412 171.826L-5.67387 172L-5.5 172C18.1667 171.966 41.8333 171.936 65.5 171.912L65.5863 171.912L65.5862 171.826C65.5295 116.348 65.5008 60.8696 65.5 5.3913C64.7692 5.39129 64.0384 5.3913 63.3076 5.3913C48.2862 5.3913 33.2649 5.3913 18.2435 5.3913C10.329 5.3913 2.41449 5.3913 -5.5 5.3913ZM-5.5 5.3913H-6H-5H-5.5Z" fill="black" mask="url(#path-4-inside-1_2018_274)"/>
<path d="M170 99.1304C170 146.411 137.317 184.739 97 184.739C56.6832 184.739 24 146.411 24 99.1304C24 51.85 56.6832 13.5217 97 13.5217C137.317 13.5217 170 51.85 170 99.1304Z" fill="#DE5858"/>
<path d="M101 77C101 77.0807 101 77.1613 101 78.8969C101 80.6324 101 84.0204 101 88" stroke="#204944" stroke-width="10" stroke-linecap="round"/>
<path d="M58 77C58 77.0807 58 77.1613 58 78.8969C58 80.6324 58 84.0204 58 88" stroke="#204944" stroke-width="10" stroke-linecap="round"/>
<path d="M68.5 102C77.7466 106.829 82.5536 106.736 90.5 102" stroke="#204944" stroke-width="10" stroke-linecap="round"/>
<path d="M85 26C83.9065 25.4185 82.8534 24.8609 82.0452 24.4497C81.2224 24.0386 80.6209 23.8076 80 23.8076C79.3791 23.8076 78.7776 24.0386 77.9548 24.4497C77.1466 24.8609 76.0935 25.4185 75 26C75 26 75 26 75 26C73.8333 26.6333 72.725 27.2667 71.675 27.9C62.225 33.6 57.5 39.3 57.5 45C57.5 45 57.5 45 57.5 45C57.5 50.7 62.225 56.4 71.675 62.1C72.725 62.7333 73.8333 63.3667 75 64C76.0935 64.5815 77.1466 65.1391 77.9548 65.5503C78.7776 65.9614 79.3791 66.1924 80 66.1924C80.6209 66.1924 81.2224 65.9614 82.0452 65.5503C82.8534 65.1391 83.9065 64.5815 85 64C86.1667 63.3667 87.275 62.7333 88.325 62.1C97.775 56.4 102.5 50.7 102.5 45C102.5 45 102.5 45 102.5 45C102.5 39.3 97.775 33.6 88.325 27.9C87.275 27.2667 86.1667 26.6333 85 26Z" fill="#1CAD46"/>
</g>
<path d="M78.5565 29.7515C79.3896 28.9407 80.1401 28.015 80.5691 26.9531C80.9981 25.8911 81.0714 24.7823 80.7412 23.7744C80.411 22.7666 79.6959 21.916 78.7217 21.3137C77.7475 20.7114 76.5948 20.4092 75.4435 20.2485C75.4435 20.2485 75.4435 20.2485 75.4435 20.2485C74.2274 20.0856 73.0197 19.9481 71.8203 19.8359C61.0254 18.8262 50.903 19.8693 41.453 22.9649C32.003 26.0606 23.2254 31.209 15.1203 38.41C14.2197 39.2101 13.3274 40.0356 12.4435 40.8864C11.6104 41.6972 10.8599 42.6229 10.4309 43.6848C10.0019 44.7468 9.92864 45.8556 10.2588 46.8635C10.589 47.8713 11.3041 48.7219 12.2783 49.3242C13.2525 49.9265 14.4052 50.2287 15.5565 50.3895C15.5565 50.3895 15.5565 50.3895 15.5565 50.3895C16.7726 50.5523 17.9803 50.6898 19.1797 50.802C29.9746 51.8117 40.097 50.7687 49.547 47.673C58.997 44.5773 67.7746 39.4289 75.8797 32.2279C76.7803 31.4278 77.6726 30.6023 78.5565 29.7515Z" fill="#1B9E41"/>
<path d="M82.288 20.6688C81.1489 20.8984 80.0169 21.2669 79.0799 21.9227C78.1429 22.5785 77.4781 23.4658 77.2055 24.4883C76.9329 25.5109 77.0676 26.6114 77.5538 27.6466C78.04 28.6818 78.8383 29.5649 79.712 30.3312C79.712 30.3312 79.712 30.3312 79.712 30.3312C80.631 31.1282 81.5569 31.8995 82.4897 32.6449C90.8849 39.354 99.8365 43.9761 109.345 46.511C110.094 46.7107 110.846 46.8974 111.602 47.0712L110.88 46.856C119.587 49.3986 128.868 50.2005 138.723 49.2616C139.912 49.1483 141.109 49.0097 142.314 48.8458C143.465 48.6827 144.616 48.3807 145.59 47.7805C146.564 47.1803 147.279 46.333 147.61 45.3281C147.942 44.3232 147.871 43.2167 147.446 42.1549C147.021 41.0932 146.275 40.1652 145.448 39.3494C144.576 38.5003 143.697 37.6766 142.809 36.8782C135.447 30.2586 127.512 25.3797 119.001 22.2416L118.279 22.0264C117.537 21.8008 116.791 21.5882 116.042 21.3885C106.534 18.8536 96.4699 18.4058 85.849 20.045C84.6689 20.2272 83.4819 20.4351 82.288 20.6688Z" fill="#1B9E41"/>
</g>
<defs>
<clipPath id="clip0_2018_274">
<rect width="160" height="157" rx="2" fill="white"/>
</clipPath>
</defs>
</svg>
