<svg width="71" height="42" viewBox="0 0 71 42" fill="none" xmlns="http://www.w3.org/2000/svg">
<g filter="url(#filter0_d_2020_322)">
<path d="M5.60842 32.8373C3.1129 34.2845 9.10216 25.6016 9.10216 25.6016V4.37668L13.5941 1H61.0091L66.0001 3.8943V25.6016L61.0091 28.0135H13.5941C13.5941 28.0135 8.10395 31.3902 5.60842 32.8373Z" fill="#EAE9E9"/>
<path d="M9.10216 25.6016L9.92533 26.1694L10.1022 25.913V25.6016H9.10216ZM5.60842 32.8373L5.10677 31.9722L5.10677 31.9722L5.60842 32.8373ZM13.5941 28.0135V27.0135H13.3112L13.0702 27.1617L13.5941 28.0135ZM61.0091 28.0135V29.0135H61.238L61.4442 28.9138L61.0091 28.0135ZM66.0001 25.6016L66.4352 26.5019L67.0001 26.2289V25.6016H66.0001ZM66.0001 3.8943H67.0001V3.31822L66.5018 3.02923L66.0001 3.8943ZM61.0091 1L61.5107 0.134931L61.2781 0H61.0091V1ZM13.5941 1V0H13.2602L12.9932 0.20066L13.5941 1ZM9.10216 4.37668L8.50128 3.57734L8.10216 3.87737V4.37668H9.10216ZM9.10216 25.6016C8.27899 25.0338 8.27894 25.0338 8.27886 25.0339C8.2788 25.034 8.2787 25.0342 8.27859 25.0343C8.27837 25.0347 8.27805 25.0351 8.27764 25.0357C8.27683 25.0369 8.27566 25.0386 8.27414 25.0408C8.27109 25.0452 8.26663 25.0517 8.26082 25.0602C8.24919 25.0771 8.23214 25.1019 8.21012 25.1341C8.16607 25.1985 8.10209 25.2924 8.02172 25.411C7.86103 25.6483 7.63459 25.9851 7.3708 26.3847C6.84441 27.182 6.16429 28.2365 5.56036 29.2503C4.97234 30.2374 4.40491 31.27 4.15617 31.9912C4.09247 32.1759 4.03207 32.3887 4.00963 32.6025C3.99201 32.7704 3.96816 33.1809 4.24542 33.5463C4.59871 34.012 5.11925 34.0289 5.40454 33.9803C5.67355 33.9344 5.91901 33.8132 6.11008 33.7024L5.60842 32.8373L5.10677 31.9722C4.9859 32.0423 4.9857 32.0228 5.06828 32.0088C5.16714 31.9919 5.56046 31.9707 5.8387 32.3374C5.94746 32.4808 5.98151 32.6185 5.99281 32.6906C6.00413 32.7628 5.99902 32.8083 5.9987 32.8113C5.99843 32.8139 6.00529 32.7639 6.04688 32.6433C6.21925 32.1435 6.68123 31.2766 7.27858 30.2739C7.86002 29.2979 8.52125 28.2721 9.03986 27.4866C9.29857 27.0947 9.52055 26.7645 9.67764 26.5326C9.75617 26.4167 9.81843 26.3254 9.8609 26.2633C9.88213 26.2322 9.89841 26.2085 9.90929 26.1927C9.91474 26.1847 9.91883 26.1788 9.92152 26.1749C9.92287 26.1729 9.92386 26.1715 9.9245 26.1706C9.92482 26.1701 9.92505 26.1698 9.92518 26.1696C9.92525 26.1695 9.92529 26.1694 9.92532 26.1694C9.92534 26.1693 9.92533 26.1694 9.10216 25.6016ZM5.60842 32.8373L6.11008 33.7024C7.36829 32.9727 9.37333 31.7615 11.0569 30.737C11.9002 30.2238 12.6653 29.756 13.2196 29.4164C13.4968 29.2466 13.7213 29.1089 13.8765 29.0136C13.9542 28.9659 14.0145 28.9289 14.0554 28.9037C14.0759 28.8912 14.0915 28.8816 14.102 28.8751C14.1073 28.8719 14.1113 28.8694 14.1139 28.8678C14.1153 28.8669 14.1163 28.8663 14.117 28.8659C14.1173 28.8657 14.1175 28.8655 14.1177 28.8654C14.1178 28.8654 14.1179 28.8653 14.1179 28.8653C14.118 28.8653 14.118 28.8653 13.5941 28.0135C13.0702 27.1617 13.0702 27.1617 13.0702 27.1617C13.0701 27.1617 13.0701 27.1618 13.07 27.1618C13.0698 27.1619 13.0696 27.1621 13.0693 27.1623C13.0686 27.1627 13.0676 27.1633 13.0663 27.1641C13.0637 27.1657 13.0598 27.1681 13.0546 27.1713C13.0441 27.1777 13.0286 27.1872 13.0083 27.1998C12.9676 27.2248 12.9075 27.2617 12.8301 27.3092C12.6754 27.4042 12.4515 27.5416 12.1749 27.711C11.6218 28.0498 10.8584 28.5166 10.0172 29.0284C8.33189 30.054 6.34408 31.2547 5.10677 31.9722L5.60842 32.8373ZM13.5941 28.0135V29.0135H61.0091V28.0135V27.0135H13.5941V28.0135ZM61.0091 28.0135L61.4442 28.9138L66.4352 26.5019L66.0001 25.6016L65.565 24.7012L60.574 27.1131L61.0091 28.0135ZM66.0001 25.6016H67.0001V3.8943H66.0001H65.0001V25.6016H66.0001ZM66.0001 3.8943L66.5018 3.02923L61.5107 0.134931L61.0091 1L60.5074 1.86507L65.4985 4.75937L66.0001 3.8943ZM61.0091 1V0H13.5941V1V2H61.0091V1ZM13.5941 1L12.9932 0.20066L8.50128 3.57734L9.10216 4.37668L9.70304 5.17602L14.195 1.79934L13.5941 1ZM9.10216 4.37668H8.10216V25.6016H9.10216H10.1022V4.37668H9.10216Z" fill="#204944"/>
</g>
<path d="M17.1401 14.212C16.8681 14.212 16.6601 14.18 16.5161 14.116C16.3721 14.044 16.2681 13.964 16.2041 13.876C16.1481 13.788 16.1161 13.708 16.1081 13.636C16.1001 13.556 16.0961 13.508 16.0961 13.492C16.0961 13.452 16.0801 13.388 16.0481 13.3C16.0241 13.204 15.9441 13.156 15.8081 13.156C15.5841 13.156 15.3841 13.224 15.2081 13.36C15.0401 13.496 14.9481 13.696 14.9321 13.96C14.9161 14.224 14.9841 14.452 15.1361 14.644C15.2881 14.836 15.5881 14.936 16.0361 14.944C16.2601 14.944 16.4961 14.976 16.7441 15.04C16.9921 15.104 17.2241 15.208 17.4401 15.352C17.6641 15.488 17.8401 15.676 17.9681 15.916C18.1041 16.148 18.1721 16.44 18.1721 16.792C18.1641 17.496 17.9761 18.04 17.6081 18.424C17.2401 18.808 16.6281 19 15.7721 19C15.2041 19 14.7481 18.932 14.4041 18.796C14.0601 18.652 13.8081 18.484 13.6481 18.292C13.4961 18.1 13.4161 17.928 13.4081 17.776C13.4001 17.624 13.4081 17.476 13.4321 17.332C13.4641 17.188 13.5481 17.064 13.6841 16.96C13.8281 16.856 14.0561 16.792 14.3681 16.768C14.6881 16.744 14.9161 16.772 15.0521 16.852C15.1881 16.924 15.2721 17.008 15.3041 17.104C15.3441 17.2 15.3641 17.26 15.3641 17.284C15.3641 17.308 15.3721 17.368 15.3881 17.464C15.4121 17.552 15.4521 17.64 15.5081 17.728C15.5721 17.808 15.6601 17.848 15.7721 17.848C15.9401 17.848 16.0841 17.78 16.2041 17.644C16.3241 17.508 16.4001 17.288 16.4321 16.984C16.4881 16.384 16.1881 16.084 15.5321 16.084C15.3721 16.084 15.1641 16.06 14.9081 16.012C14.6601 15.956 14.4121 15.86 14.1641 15.724C13.9161 15.58 13.7081 15.38 13.5401 15.124C13.3721 14.868 13.2921 14.532 13.3001 14.116C13.3081 13.7 13.3841 13.36 13.5281 13.096C13.6721 12.824 13.8601 12.616 14.0921 12.472C14.3321 12.32 14.5921 12.212 14.8721 12.148C15.1601 12.084 15.4441 12.048 15.7241 12.04C16.1001 12.032 16.4601 12.076 16.8041 12.172C17.1561 12.268 17.4481 12.416 17.6801 12.616C17.9201 12.808 18.0561 13.06 18.0881 13.372C18.1121 13.604 18.0761 13.78 17.9801 13.9C17.8921 14.012 17.7801 14.092 17.6441 14.14C17.5161 14.18 17.4001 14.204 17.2961 14.212C17.1921 14.212 17.1401 14.212 17.1401 14.212ZM18.7491 12.448C18.7411 12.248 18.8011 12.088 18.9291 11.968C19.0571 11.84 19.3411 11.764 19.7811 11.74C20.0771 11.724 20.2931 11.76 20.4291 11.848C20.5651 11.936 20.6491 12.028 20.6811 12.124C20.7211 12.212 20.7411 12.256 20.7411 12.256L20.8131 13.324C20.8131 13.324 20.8771 13.324 21.0051 13.324C21.1411 13.324 21.2931 13.34 21.4611 13.372C21.6371 13.396 21.7891 13.448 21.9171 13.528C22.0531 13.608 22.1211 13.732 22.1211 13.9C22.1211 14.068 22.0571 14.192 21.9291 14.272C21.8011 14.352 21.6531 14.408 21.4851 14.44C21.3171 14.464 21.1651 14.476 21.0291 14.476C20.9011 14.476 20.8371 14.476 20.8371 14.476C20.8371 14.476 20.8371 14.568 20.8371 14.752C20.8451 14.928 20.8491 15.16 20.8491 15.448C20.8491 15.728 20.8531 16.028 20.8611 16.348C20.8691 16.668 20.8731 16.976 20.8731 17.272C20.8731 17.56 20.8731 17.804 20.8731 18.004C20.8811 18.196 20.8851 18.308 20.8851 18.34C20.8851 18.396 20.8651 18.476 20.8251 18.58C20.7931 18.684 20.7011 18.78 20.5491 18.868C20.4051 18.956 20.1651 19 19.8291 19C19.5811 19 19.3891 18.972 19.2531 18.916C19.1171 18.852 19.0171 18.784 18.9531 18.712C18.8971 18.632 18.8651 18.564 18.8571 18.508C18.8491 18.444 18.8451 18.412 18.8451 18.412L18.7491 12.448ZM25.0751 14.044C25.4751 14.036 25.8151 14.072 26.0951 14.152C26.3751 14.224 26.6071 14.312 26.7911 14.416C26.9751 14.52 27.1191 14.612 27.2231 14.692C27.3271 14.772 27.4031 14.812 27.4511 14.812C27.5391 14.82 27.6031 14.864 27.6431 14.944C27.6831 15.016 27.7031 15.052 27.7031 15.052C27.7031 15.052 27.7151 15.132 27.7391 15.292C27.7631 15.452 27.7911 15.656 27.8231 15.904C27.8631 16.152 27.8991 16.412 27.9311 16.684C27.9631 16.956 27.9911 17.212 28.0151 17.452C28.0391 17.692 28.0511 17.88 28.0511 18.016C28.0511 18.24 28.0351 18.42 28.0031 18.556C27.9791 18.692 27.8991 18.796 27.7631 18.868C27.6271 18.932 27.4031 18.976 27.0911 19C26.8591 19.016 26.6911 19.012 26.5871 18.988C26.4831 18.964 26.4191 18.936 26.3951 18.904C26.3711 18.872 26.3591 18.856 26.3591 18.856C26.2871 18.912 26.1671 18.952 25.9991 18.976C25.8391 18.992 25.6871 19 25.5431 19C25.3991 19 25.3271 19 25.3271 19C25.3271 19 25.2351 18.988 25.0511 18.964C24.8671 18.932 24.6391 18.872 24.3671 18.784C24.1031 18.688 23.8351 18.548 23.5631 18.364C23.2991 18.172 23.0791 17.92 22.9031 17.608C22.7271 17.288 22.6431 16.892 22.6511 16.42C22.6591 15.948 22.7471 15.564 22.9151 15.268C23.0831 14.964 23.2871 14.728 23.5271 14.56C23.7671 14.392 24.0031 14.272 24.2351 14.2C24.4751 14.128 24.6751 14.084 24.8351 14.068C24.9951 14.052 25.0751 14.044 25.0751 14.044ZM25.9751 15.28C25.9351 15.224 25.8471 15.164 25.7111 15.1C25.5831 15.028 25.4591 14.968 25.3391 14.92C25.2271 14.872 25.1711 14.856 25.1711 14.872C25.1711 14.88 25.1271 14.948 25.0391 15.076C24.9591 15.196 24.8751 15.376 24.7871 15.616C24.7071 15.848 24.6631 16.128 24.6551 16.456C24.6471 16.784 24.6911 17.068 24.7871 17.308C24.8831 17.548 24.9991 17.732 25.1351 17.86C25.2791 17.988 25.4111 18.052 25.5311 18.052C25.6191 18.052 25.7031 18.012 25.7831 17.932C25.8631 17.844 25.9311 17.748 25.9871 17.644C26.0431 17.532 26.0871 17.436 26.1191 17.356C26.1511 17.276 26.1671 17.236 26.1671 17.236L25.9751 15.28ZM29.0965 18.184C29.0965 18.096 29.0845 17.944 29.0605 17.728C29.0365 17.512 29.0045 17.268 28.9645 16.996C28.9325 16.716 28.8965 16.44 28.8565 16.168C28.8165 15.888 28.7725 15.64 28.7245 15.424C28.6845 15.2 28.6485 15.04 28.6165 14.944C28.5365 14.704 28.5805 14.536 28.7485 14.44C28.9245 14.336 29.1685 14.268 29.4805 14.236C29.7925 14.204 30.0165 14.228 30.1525 14.308C30.2965 14.38 30.3685 14.416 30.3685 14.416C30.4885 14.296 30.6845 14.212 30.9565 14.164C31.2365 14.116 31.5285 14.096 31.8325 14.104C32.2245 14.112 32.5085 14.172 32.6845 14.284C32.8605 14.396 32.9485 14.516 32.9485 14.644C32.9485 14.74 32.9365 14.812 32.9125 14.86C32.8885 14.908 32.7925 14.956 32.6245 15.004C32.4645 15.044 32.1725 15.116 31.7485 15.22C31.5005 15.276 31.3165 15.412 31.1965 15.628C31.0765 15.836 31.0005 16.08 30.9685 16.36C30.9445 16.632 30.9445 16.904 30.9685 17.176C30.9925 17.44 31.0205 17.664 31.0525 17.848C31.0845 18.024 31.1005 18.12 31.1005 18.136C31.1005 18.152 31.1045 18.208 31.1125 18.304C31.1285 18.392 31.1165 18.492 31.0765 18.604C31.0445 18.708 30.9605 18.8 30.8245 18.88C30.6885 18.96 30.4725 19 30.1765 19C29.8805 19 29.6565 18.96 29.5045 18.88C29.3525 18.792 29.2485 18.696 29.1925 18.592C29.1365 18.488 29.1045 18.396 29.0965 18.316C29.0965 18.228 29.0965 18.184 29.0965 18.184ZM33.503 12.448C33.495 12.248 33.555 12.088 33.683 11.968C33.811 11.84 34.095 11.764 34.535 11.74C34.831 11.724 35.047 11.76 35.183 11.848C35.319 11.936 35.403 12.028 35.435 12.124C35.475 12.212 35.495 12.256 35.495 12.256L35.567 13.324C35.567 13.324 35.631 13.324 35.759 13.324C35.895 13.324 36.047 13.34 36.215 13.372C36.391 13.396 36.543 13.448 36.671 13.528C36.807 13.608 36.875 13.732 36.875 13.9C36.875 14.068 36.811 14.192 36.683 14.272C36.555 14.352 36.407 14.408 36.239 14.44C36.071 14.464 35.919 14.476 35.783 14.476C35.655 14.476 35.591 14.476 35.591 14.476C35.591 14.476 35.591 14.568 35.591 14.752C35.599 14.928 35.603 15.16 35.603 15.448C35.603 15.728 35.607 16.028 35.615 16.348C35.623 16.668 35.627 16.976 35.627 17.272C35.627 17.56 35.627 17.804 35.627 18.004C35.635 18.196 35.639 18.308 35.639 18.34C35.639 18.396 35.619 18.476 35.579 18.58C35.547 18.684 35.455 18.78 35.303 18.868C35.159 18.956 34.919 19 34.583 19C34.335 19 34.143 18.972 34.007 18.916C33.871 18.852 33.771 18.784 33.707 18.712C33.651 18.632 33.619 18.564 33.611 18.508C33.603 18.444 33.599 18.412 33.599 18.412L33.503 12.448ZM38.473 13.948C38.473 13.948 38.421 13.948 38.317 13.948C38.213 13.94 38.089 13.916 37.945 13.876C37.809 13.828 37.685 13.744 37.573 13.624C37.461 13.504 37.401 13.324 37.393 13.084C37.385 12.844 37.421 12.668 37.501 12.556C37.581 12.436 37.681 12.356 37.801 12.316C37.921 12.268 38.037 12.244 38.149 12.244C38.261 12.236 38.341 12.228 38.389 12.22C38.437 12.212 38.517 12.22 38.629 12.244C38.741 12.26 38.857 12.304 38.977 12.376C39.097 12.44 39.197 12.54 39.277 12.676C39.357 12.804 39.389 12.976 39.373 13.192C39.357 13.4 39.301 13.56 39.205 13.672C39.117 13.776 39.013 13.848 38.893 13.888C38.781 13.92 38.681 13.94 38.593 13.948C38.513 13.948 38.473 13.948 38.473 13.948ZM38.053 18.256L37.765 15.52C37.765 15.52 37.745 15.48 37.705 15.4C37.673 15.312 37.649 15.252 37.633 15.22C37.625 15.196 37.609 15.148 37.585 15.076C37.569 14.996 37.589 14.912 37.645 14.824C37.709 14.736 37.845 14.672 38.053 14.632C38.269 14.592 38.493 14.58 38.725 14.596C38.957 14.612 39.161 14.684 39.337 14.812C39.521 14.932 39.633 15.144 39.673 15.448C39.705 15.672 39.737 15.94 39.769 16.252C39.801 16.556 39.829 16.856 39.853 17.152C39.885 17.44 39.909 17.684 39.925 17.884C39.949 18.076 39.961 18.172 39.961 18.172C39.961 18.172 39.965 18.216 39.973 18.304C39.981 18.384 39.969 18.48 39.937 18.592C39.905 18.696 39.825 18.792 39.697 18.88C39.577 18.96 39.381 19 39.109 19C38.837 19 38.629 18.964 38.485 18.892C38.341 18.812 38.237 18.724 38.173 18.628C38.117 18.532 38.081 18.448 38.065 18.376C38.057 18.296 38.053 18.256 38.053 18.256ZM41.972 19C41.972 19 41.92 19 41.816 19C41.712 19 41.592 18.984 41.456 18.952C41.328 18.92 41.212 18.856 41.108 18.76C41.004 18.664 40.944 18.524 40.928 18.34C40.92 18.188 40.904 17.972 40.88 17.692C40.856 17.412 40.828 17.108 40.796 16.78C40.772 16.444 40.748 16.128 40.724 15.832C40.7 15.528 40.68 15.28 40.664 15.088C40.648 14.896 40.64 14.8 40.64 14.8C40.64 14.8 40.644 14.768 40.652 14.704C40.66 14.632 40.688 14.552 40.736 14.464C40.792 14.376 40.884 14.296 41.012 14.224C41.148 14.152 41.336 14.112 41.576 14.104C41.816 14.096 42.004 14.12 42.14 14.176C42.276 14.232 42.372 14.3 42.428 14.38C42.492 14.452 42.528 14.52 42.536 14.584C42.552 14.64 42.56 14.668 42.56 14.668C42.56 14.668 42.632 14.632 42.776 14.56C42.928 14.48 43.12 14.4 43.352 14.32C43.592 14.24 43.844 14.192 44.108 14.176C44.148 14.176 44.224 14.176 44.336 14.176C44.456 14.176 44.584 14.204 44.72 14.26C44.864 14.308 45.004 14.404 45.14 14.548C45.284 14.692 45.404 14.904 45.5 15.184C45.596 15.456 45.652 15.816 45.668 16.264C45.692 16.824 45.708 17.284 45.716 17.644C45.732 18.004 45.72 18.284 45.68 18.484C45.648 18.676 45.568 18.812 45.44 18.892C45.32 18.964 45.128 19 44.864 19C44.608 19 44.42 18.964 44.3 18.892C44.18 18.82 44.104 18.736 44.072 18.64C44.04 18.536 44.024 18.444 44.024 18.364C44.024 18.316 44.032 18.188 44.048 17.98C44.064 17.764 44.076 17.52 44.084 17.248C44.092 16.968 44.088 16.696 44.072 16.432C44.064 16.16 44.032 15.94 43.976 15.772C43.928 15.596 43.848 15.512 43.736 15.52C43.6 15.528 43.472 15.58 43.352 15.676C43.24 15.764 43.14 15.868 43.052 15.988C42.964 16.1 42.896 16.2 42.848 16.288C42.8 16.368 42.776 16.408 42.776 16.408L42.896 18.22C42.896 18.22 42.896 18.26 42.896 18.34C42.896 18.42 42.872 18.512 42.824 18.616C42.776 18.712 42.684 18.8 42.548 18.88C42.42 18.96 42.228 19 41.972 19ZM49.8521 18.7C49.8521 18.7 49.7921 18.724 49.6721 18.772C49.5601 18.82 49.4081 18.872 49.2161 18.928C49.0241 18.976 48.8081 19 48.5681 19C48.3921 19 48.1721 18.976 47.9081 18.928C47.6521 18.872 47.3961 18.768 47.1401 18.616C46.8841 18.464 46.6721 18.244 46.5041 17.956C46.3441 17.668 46.2681 17.284 46.2761 16.804C46.2921 16.324 46.4001 15.916 46.6001 15.58C46.8001 15.236 47.0561 14.952 47.3681 14.728C47.6801 14.504 48.0081 14.336 48.3521 14.224C48.7041 14.112 49.0321 14.048 49.3361 14.032C49.7441 14.008 50.0881 14.052 50.3681 14.164C50.6481 14.268 50.8601 14.392 51.0041 14.536C51.1481 14.672 51.2201 14.784 51.2201 14.872C51.2201 14.936 51.2481 15.084 51.3041 15.316C51.3601 15.548 51.4201 15.836 51.4841 16.18C51.5561 16.516 51.6201 16.888 51.6761 17.296C51.7321 17.696 51.7641 18.104 51.7721 18.52C51.7801 18.936 51.7681 19.324 51.7361 19.684C51.7121 20.052 51.6401 20.376 51.5201 20.656C51.4081 20.944 51.2161 21.168 50.9441 21.328C50.6721 21.496 50.2961 21.584 49.8161 21.592C49.1681 21.6 48.6201 21.524 48.1721 21.364C47.7321 21.212 47.3881 21.036 47.1401 20.836C46.8921 20.644 46.7441 20.492 46.6961 20.38C46.6481 20.268 46.6241 20.156 46.6241 20.044C46.6321 19.932 46.6921 19.84 46.8041 19.768C46.9241 19.696 47.1241 19.66 47.4041 19.66C47.6841 19.66 47.8921 19.684 48.0281 19.732C48.1721 19.788 48.2761 19.848 48.3401 19.912C48.4041 19.976 48.4601 20.028 48.5081 20.068C48.5801 20.124 48.6881 20.216 48.8321 20.344C48.9841 20.48 49.1481 20.548 49.3241 20.548C49.4441 20.548 49.5481 20.464 49.6361 20.296C49.7241 20.128 49.7881 19.904 49.8281 19.624C49.8681 19.344 49.8761 19.036 49.8521 18.7ZM49.5521 14.908C49.2801 14.932 49.0401 15.052 48.8321 15.268C48.6321 15.484 48.4721 15.744 48.3521 16.048C48.2321 16.352 48.1641 16.652 48.1481 16.948C48.1401 17.244 48.1961 17.492 48.3161 17.692C48.4361 17.884 48.6321 17.98 48.9041 17.98C49.1761 17.98 49.3801 17.888 49.5161 17.704C49.6601 17.52 49.7521 17.296 49.7921 17.032C49.8401 16.76 49.8561 16.484 49.8401 16.204C49.8321 15.916 49.8121 15.668 49.7801 15.46C49.7481 15.252 49.7321 15.12 49.7321 15.064C49.7241 14.976 49.6921 14.928 49.6361 14.92C49.5801 14.912 49.5521 14.908 49.5521 14.908ZM53.3904 19C53.1664 19 52.9464 18.964 52.7304 18.892C52.5224 18.82 52.4064 18.688 52.3824 18.496C52.3584 18.392 52.3384 18.292 52.3224 18.196C52.3064 18.1 52.3384 18.012 52.4184 17.932C52.5304 17.812 52.6944 17.732 52.9104 17.692C53.1264 17.652 53.3464 17.648 53.5704 17.68C53.7944 17.712 53.9744 17.772 54.1104 17.86C54.2064 17.924 54.2704 18.008 54.3024 18.112C54.3344 18.208 54.3544 18.308 54.3624 18.412C54.3864 18.556 54.3464 18.672 54.2424 18.76C54.1384 18.848 54.0064 18.912 53.8464 18.952C53.6864 18.984 53.5344 19 53.3904 19ZM55.9451 19C55.7211 19 55.5011 18.964 55.2851 18.892C55.0771 18.82 54.9611 18.688 54.9371 18.496C54.9131 18.392 54.8931 18.292 54.8771 18.196C54.8611 18.1 54.8931 18.012 54.9731 17.932C55.0851 17.812 55.2491 17.732 55.4651 17.692C55.6811 17.652 55.9011 17.648 56.1251 17.68C56.3491 17.712 56.5291 17.772 56.6651 17.86C56.7611 17.924 56.8251 18.008 56.8571 18.112C56.8891 18.208 56.9091 18.308 56.9171 18.412C56.9411 18.556 56.9011 18.672 56.7971 18.76C56.6931 18.848 56.5611 18.912 56.4011 18.952C56.2411 18.984 56.0891 19 55.9451 19ZM58.4998 19C58.2758 19 58.0558 18.964 57.8398 18.892C57.6318 18.82 57.5158 18.688 57.4918 18.496C57.4678 18.392 57.4478 18.292 57.4318 18.196C57.4158 18.1 57.4478 18.012 57.5278 17.932C57.6398 17.812 57.8038 17.732 58.0198 17.692C58.2358 17.652 58.4558 17.648 58.6798 17.68C58.9038 17.712 59.0838 17.772 59.2198 17.86C59.3158 17.924 59.3798 18.008 59.4118 18.112C59.4438 18.208 59.4638 18.308 59.4718 18.412C59.4958 18.556 59.4558 18.672 59.3518 18.76C59.2478 18.848 59.1158 18.912 58.9558 18.952C58.7958 18.984 58.6438 19 58.4998 19Z" fill="#204944"/>
<defs>
<filter id="filter0_d_2020_322" x="0" y="0" width="71.0001" height="41.9988" filterUnits="userSpaceOnUse" color-interpolation-filters="sRGB">
<feFlood flood-opacity="0" result="BackgroundImageFix"/>
<feColorMatrix in="SourceAlpha" type="matrix" values="0 0 0 0 0 0 0 0 0 0 0 0 0 0 0 0 0 0 127 0" result="hardAlpha"/>
<feOffset dy="4"/>
<feGaussianBlur stdDeviation="2"/>
<feComposite in2="hardAlpha" operator="out"/>
<feColorMatrix type="matrix" values="0 0 0 0 0 0 0 0 0 0 0 0 0 0 0 0 0 0 0.25 0"/>
<feBlend mode="normal" in2="BackgroundImageFix" result="effect1_dropShadow_2020_322"/>
<feBlend mode="normal" in="SourceGraphic" in2="effect1_dropShadow_2020_322" result="shape"/>
</filter>
</defs>
</svg>
