<svg width="71" height="42" viewBox="0 0 71 42" fill="none" xmlns="http://www.w3.org/2000/svg">
<g filter="url(#filter0_d_2023_79)">
<path d="M5.60842 32.8373C3.1129 34.2845 9.10216 25.6016 9.10216 25.6016V4.37668L13.5941 1H61.0091L66.0001 3.8943V25.6016L61.0091 28.0135H13.5941C13.5941 28.0135 8.10395 31.3902 5.60842 32.8373Z" fill="#EAE9E9"/>
<path d="M9.10216 25.6016L9.92533 26.1694L10.1022 25.913V25.6016H9.10216ZM5.60842 32.8373L5.10677 31.9722L5.10677 31.9722L5.60842 32.8373ZM13.5941 28.0135V27.0135H13.3112L13.0702 27.1617L13.5941 28.0135ZM61.0091 28.0135V29.0135H61.238L61.4442 28.9138L61.0091 28.0135ZM66.0001 25.6016L66.4352 26.5019L67.0001 26.2289V25.6016H66.0001ZM66.0001 3.8943H67.0001V3.31822L66.5018 3.02923L66.0001 3.8943ZM61.0091 1L61.5107 0.134931L61.2781 0H61.0091V1ZM13.5941 1V0H13.2602L12.9932 0.20066L13.5941 1ZM9.10216 4.37668L8.50128 3.57734L8.10216 3.87737V4.37668H9.10216ZM9.10216 25.6016C8.27899 25.0338 8.27894 25.0338 8.27886 25.0339C8.2788 25.034 8.2787 25.0342 8.27859 25.0343C8.27837 25.0347 8.27805 25.0351 8.27764 25.0357C8.27683 25.0369 8.27566 25.0386 8.27414 25.0408C8.27109 25.0452 8.26663 25.0517 8.26082 25.0602C8.24919 25.0771 8.23214 25.1019 8.21012 25.1341C8.16607 25.1985 8.10209 25.2924 8.02172 25.411C7.86103 25.6483 7.63459 25.9851 7.3708 26.3847C6.84441 27.182 6.16429 28.2365 5.56036 29.2503C4.97234 30.2374 4.40491 31.27 4.15617 31.9912C4.09247 32.1759 4.03207 32.3887 4.00963 32.6025C3.99201 32.7704 3.96816 33.1809 4.24542 33.5463C4.59871 34.012 5.11925 34.0289 5.40454 33.9803C5.67355 33.9344 5.91901 33.8132 6.11008 33.7024L5.60842 32.8373L5.10677 31.9722C4.9859 32.0423 4.9857 32.0228 5.06828 32.0088C5.16714 31.9919 5.56046 31.9707 5.8387 32.3374C5.94746 32.4808 5.98151 32.6185 5.99281 32.6906C6.00413 32.7628 5.99902 32.8083 5.9987 32.8113C5.99843 32.8139 6.00529 32.7639 6.04688 32.6433C6.21925 32.1435 6.68123 31.2766 7.27858 30.2739C7.86002 29.2979 8.52125 28.2721 9.03986 27.4866C9.29857 27.0947 9.52055 26.7645 9.67764 26.5326C9.75617 26.4167 9.81843 26.3254 9.8609 26.2633C9.88213 26.2322 9.89841 26.2085 9.90929 26.1927C9.91474 26.1847 9.91883 26.1788 9.92152 26.1749C9.92287 26.1729 9.92386 26.1715 9.9245 26.1706C9.92482 26.1701 9.92505 26.1698 9.92518 26.1696C9.92525 26.1695 9.92529 26.1694 9.92532 26.1694C9.92534 26.1693 9.92533 26.1694 9.10216 25.6016ZM5.60842 32.8373L6.11008 33.7024C7.3683 32.9727 9.37333 31.7615 11.0569 30.737C11.9002 30.2238 12.6653 29.756 13.2196 29.4164C13.4968 29.2466 13.7213 29.1089 13.8765 29.0136C13.9542 28.9659 14.0145 28.9289 14.0554 28.9037C14.0759 28.8912 14.0915 28.8816 14.102 28.8751C14.1073 28.8719 14.1113 28.8694 14.1139 28.8678C14.1153 28.8669 14.1163 28.8663 14.117 28.8659C14.1173 28.8657 14.1175 28.8655 14.1177 28.8654C14.1178 28.8654 14.1179 28.8653 14.1179 28.8653C14.118 28.8653 14.118 28.8653 13.5941 28.0135C13.0702 27.1617 13.0702 27.1617 13.0702 27.1617C13.0701 27.1617 13.0701 27.1618 13.07 27.1618C13.0698 27.1619 13.0696 27.1621 13.0693 27.1623C13.0686 27.1627 13.0676 27.1633 13.0663 27.1641C13.0637 27.1657 13.0598 27.1681 13.0546 27.1713C13.0441 27.1777 13.0286 27.1872 13.0083 27.1998C12.9676 27.2248 12.9075 27.2617 12.8301 27.3092C12.6754 27.4042 12.4515 27.5416 12.1749 27.711C11.6218 28.0498 10.8584 28.5166 10.0172 29.0284C8.33189 30.054 6.34408 31.2547 5.10677 31.9722L5.60842 32.8373ZM13.5941 28.0135V29.0135H61.0091V28.0135V27.0135H13.5941V28.0135ZM61.0091 28.0135L61.4442 28.9138L66.4352 26.5019L66.0001 25.6016L65.565 24.7012L60.574 27.1131L61.0091 28.0135ZM66.0001 25.6016H67.0001V3.8943H66.0001H65.0001V25.6016H66.0001ZM66.0001 3.8943L66.5018 3.02923L61.5107 0.134931L61.0091 1L60.5074 1.86507L65.4985 4.75937L66.0001 3.8943ZM61.0091 1V0H13.5941V1V2H61.0091V1ZM13.5941 1L12.9932 0.20066L8.50128 3.57734L9.10216 4.37668L9.70304 5.17602L14.195 1.79934L13.5941 1ZM9.10216 4.37668H8.10216V25.6016H9.10216H10.1022V4.37668H9.10216Z" fill="#204944"/>
</g>
<path d="M13.731 18.1414C13.707 17.8694 13.691 17.5294 13.683 17.1214C13.675 16.7054 13.671 16.2614 13.671 15.7894C13.671 15.3174 13.675 14.8614 13.683 14.4214C13.699 13.9734 13.715 13.5774 13.731 13.2334C13.747 12.8894 13.763 12.6414 13.779 12.4894C13.803 12.2974 13.871 12.1534 13.983 12.0574C14.095 11.9534 14.219 11.8814 14.355 11.8414C14.499 11.8014 14.619 11.7814 14.715 11.7814C14.819 11.7734 14.871 11.7694 14.871 11.7694C14.871 11.7694 14.919 11.7774 15.015 11.7934C15.119 11.8014 15.231 11.8214 15.351 11.8534C15.471 11.8854 15.555 11.9414 15.603 12.0214C15.707 12.1814 15.755 12.3374 15.747 12.4894C15.747 12.6334 15.739 12.8214 15.723 13.0534C15.675 13.6534 15.647 14.2414 15.639 14.8174C15.631 15.3934 15.631 15.9174 15.639 16.3894C15.647 16.8614 15.655 17.2374 15.663 17.5174C15.679 17.7974 15.687 17.9374 15.687 17.9374C15.687 17.9374 15.683 17.9814 15.675 18.0694C15.675 18.1494 15.651 18.2414 15.603 18.3454C15.555 18.4494 15.463 18.5454 15.327 18.6334C15.191 18.7134 14.991 18.7534 14.727 18.7534C14.463 18.7534 14.259 18.7254 14.115 18.6694C13.979 18.6054 13.883 18.5334 13.827 18.4534C13.779 18.3654 13.751 18.2934 13.743 18.2374C13.735 18.1734 13.731 18.1414 13.731 18.1414ZM16.6759 12.2014C16.6679 12.0014 16.7279 11.8414 16.8559 11.7214C16.9839 11.5934 17.2679 11.5174 17.7079 11.4934C18.0039 11.4774 18.2199 11.5134 18.3559 11.6014C18.4919 11.6894 18.5759 11.7814 18.6079 11.8774C18.6479 11.9654 18.6679 12.0094 18.6679 12.0094L18.7399 13.0774C18.7399 13.0774 18.8039 13.0774 18.9319 13.0774C19.0679 13.0774 19.2199 13.0934 19.3879 13.1254C19.5639 13.1494 19.7159 13.2014 19.8439 13.2814C19.9799 13.3614 20.0479 13.4854 20.0479 13.6534C20.0479 13.8214 19.9839 13.9454 19.8559 14.0254C19.7279 14.1054 19.5799 14.1614 19.4119 14.1934C19.2439 14.2174 19.0919 14.2294 18.9559 14.2294C18.8279 14.2294 18.7639 14.2294 18.7639 14.2294C18.7639 14.2294 18.7639 14.3214 18.7639 14.5054C18.7719 14.6814 18.7759 14.9134 18.7759 15.2014C18.7759 15.4814 18.7799 15.7814 18.7879 16.1014C18.7959 16.4214 18.7999 16.7294 18.7999 17.0254C18.7999 17.3134 18.7999 17.5574 18.7999 17.7574C18.8079 17.9494 18.8119 18.0614 18.8119 18.0934C18.8119 18.1494 18.7919 18.2294 18.7519 18.3334C18.7199 18.4374 18.6279 18.5334 18.4759 18.6214C18.3319 18.7094 18.0919 18.7534 17.7559 18.7534C17.5079 18.7534 17.3159 18.7254 17.1799 18.6694C17.0439 18.6054 16.9439 18.5374 16.8799 18.4654C16.8239 18.3854 16.7919 18.3174 16.7839 18.2614C16.7759 18.1974 16.7719 18.1654 16.7719 18.1654L16.6759 12.2014ZM22.69 9.78936C22.698 9.78936 22.71 9.84936 22.726 9.96936C22.742 10.0814 22.758 10.2134 22.774 10.3654C22.79 10.5094 22.798 10.6294 22.798 10.7254C22.806 10.8614 22.762 10.9574 22.666 11.0134C22.578 11.0614 22.482 11.0974 22.378 11.1214C22.138 11.1774 21.882 11.1814 21.61 11.1334C21.346 11.0854 21.134 10.9854 20.974 10.8334C20.87 10.7374 20.814 10.5894 20.806 10.3894C20.798 10.1814 20.786 9.98536 20.77 9.80136C20.762 9.70536 20.79 9.62536 20.854 9.56136C20.918 9.49736 20.99 9.44936 21.07 9.41736L21.19 9.36936C21.43 9.30536 21.65 9.29736 21.85 9.34536C22.058 9.38536 22.25 9.44936 22.426 9.53736C22.546 9.60136 22.634 9.68536 22.69 9.78936ZM25.9596 16.8334C25.3596 16.8174 24.8916 16.7574 24.5556 16.6534C24.2196 16.5494 23.9796 16.4254 23.8356 16.2814C23.6996 16.1374 23.6156 15.9974 23.5836 15.8614C23.5516 15.7174 23.5356 15.6054 23.5356 15.5254C23.5356 15.4454 23.5476 15.3214 23.5716 15.1534C23.5956 14.9854 23.6716 14.8094 23.7996 14.6254C23.9276 14.4414 24.1476 14.2814 24.4596 14.1454C24.7796 14.0094 25.2316 13.9334 25.8156 13.9174C26.4556 13.9014 26.9476 13.9374 27.2916 14.0254C27.6356 14.1134 27.8796 14.2174 28.0236 14.3374C28.1756 14.4574 28.2676 14.5654 28.2996 14.6614C28.3316 14.7494 28.3476 14.7934 28.3476 14.7934C28.3476 14.8974 28.3356 15.0054 28.3116 15.1174C28.2876 15.2214 28.2156 15.3094 28.0956 15.3814C27.9836 15.4454 27.7876 15.4734 27.5076 15.4654C27.2836 15.4574 27.1156 15.4374 27.0036 15.4054C26.8916 15.3734 26.8076 15.3374 26.7516 15.2974C26.7036 15.2494 26.6516 15.2014 26.5956 15.1534C26.5476 15.1054 26.4716 15.0654 26.3676 15.0334C26.2716 15.0014 26.1156 14.9814 25.8996 14.9734C25.6356 14.9654 25.4356 14.9854 25.2996 15.0334C25.1716 15.0734 25.0836 15.1254 25.0356 15.1894C24.9956 15.2534 24.9716 15.3094 24.9636 15.3574C24.9636 15.3974 24.9636 15.4174 24.9636 15.4174C24.9636 15.4174 24.9716 15.4494 24.9876 15.5134C25.0116 15.5774 25.0916 15.6414 25.2276 15.7054C25.3716 15.7694 25.6276 15.8054 25.9956 15.8134C26.6916 15.8374 27.2236 15.9054 27.5916 16.0174C27.9676 16.1214 28.2316 16.2454 28.3836 16.3894C28.5436 16.5334 28.6356 16.6774 28.6596 16.8214C28.6916 16.9574 28.7076 17.0654 28.7076 17.1454C28.7076 17.2254 28.6796 17.3494 28.6236 17.5174C28.5756 17.6854 28.4676 17.8614 28.2996 18.0454C28.1316 18.2294 27.8716 18.3894 27.5196 18.5254C27.1756 18.6614 26.7116 18.7374 26.1276 18.7534C25.4956 18.7694 25.0036 18.7334 24.6516 18.6454C24.3076 18.5574 24.0596 18.4534 23.9076 18.3334C23.7636 18.2134 23.6756 18.1094 23.6436 18.0214C23.6116 17.9254 23.5956 17.8774 23.5956 17.8774C23.5956 17.7654 23.6076 17.6574 23.6316 17.5534C23.6636 17.4494 23.7356 17.3654 23.8476 17.3014C23.9676 17.2294 24.1636 17.1974 24.4356 17.2054C24.6676 17.2134 24.8356 17.2334 24.9396 17.2654C25.0516 17.2974 25.1356 17.3374 25.1916 17.3854C25.2476 17.4254 25.2996 17.4694 25.3476 17.5174C25.3956 17.5654 25.4716 17.6054 25.5756 17.6374C25.6796 17.6694 25.8356 17.6894 26.0436 17.6974C26.3076 17.7054 26.5036 17.6894 26.6316 17.6494C26.7676 17.6014 26.8596 17.5454 26.9076 17.4814C26.9556 17.4174 26.9796 17.3654 26.9796 17.3254C26.9796 17.2774 26.9796 17.2534 26.9796 17.2534C26.9796 17.2534 26.9716 17.2214 26.9556 17.1574C26.9396 17.0854 26.8596 17.0174 26.7156 16.9534C26.5796 16.8814 26.3276 16.8414 25.9596 16.8334ZM32.8593 17.9374C32.8593 17.8494 32.8473 17.6974 32.8233 17.4814C32.7993 17.2654 32.7673 17.0214 32.7273 16.7494C32.6953 16.4694 32.6593 16.1934 32.6193 15.9214C32.5793 15.6414 32.5353 15.3934 32.4873 15.1774C32.4473 14.9534 32.4113 14.7934 32.3793 14.6974C32.2993 14.4574 32.3433 14.2894 32.5113 14.1934C32.6873 14.0894 32.9313 14.0214 33.2433 13.9894C33.5553 13.9574 33.7793 13.9814 33.9153 14.0614C34.0593 14.1334 34.1313 14.1694 34.1313 14.1694C34.2513 14.0494 34.4473 13.9654 34.7193 13.9174C34.9993 13.8694 35.2913 13.8494 35.5953 13.8574C35.9873 13.8654 36.2713 13.9254 36.4473 14.0374C36.6233 14.1494 36.7113 14.2694 36.7113 14.3974C36.7113 14.4934 36.6993 14.5654 36.6753 14.6134C36.6513 14.6614 36.5553 14.7094 36.3873 14.7574C36.2273 14.7974 35.9353 14.8694 35.5113 14.9734C35.2633 15.0294 35.0793 15.1654 34.9593 15.3814C34.8393 15.5894 34.7633 15.8334 34.7313 16.1134C34.7073 16.3854 34.7073 16.6574 34.7313 16.9294C34.7553 17.1934 34.7833 17.4174 34.8153 17.6014C34.8473 17.7774 34.8633 17.8734 34.8633 17.8894C34.8633 17.9054 34.8673 17.9614 34.8753 18.0574C34.8913 18.1454 34.8793 18.2454 34.8393 18.3574C34.8073 18.4614 34.7233 18.5534 34.5873 18.6334C34.4513 18.7134 34.2353 18.7534 33.9393 18.7534C33.6433 18.7534 33.4193 18.7134 33.2673 18.6334C33.1153 18.5454 33.0113 18.4494 32.9553 18.3454C32.8993 18.2414 32.8673 18.1494 32.8593 18.0694C32.8593 17.9814 32.8593 17.9374 32.8593 17.9374ZM42.0778 15.1294C42.0538 15.5294 41.9418 15.8534 41.7418 16.1014C41.5418 16.3414 41.2978 16.5254 41.0098 16.6534C40.7298 16.7734 40.4498 16.8574 40.1698 16.9054C39.8898 16.9454 39.6538 16.9654 39.4618 16.9654C39.2778 16.9654 39.1858 16.9654 39.1858 16.9654C39.2338 17.2454 39.3018 17.4454 39.3898 17.5654C39.4778 17.6854 39.5738 17.7534 39.6778 17.7694C39.7898 17.7854 39.8938 17.7774 39.9898 17.7454C40.0858 17.7054 40.1618 17.6614 40.2178 17.6134C40.2818 17.5654 40.3138 17.5414 40.3138 17.5414C40.3138 17.5414 40.3578 17.5054 40.4458 17.4334C40.5338 17.3614 40.6698 17.2934 40.8538 17.2294C41.0458 17.1574 41.2858 17.1214 41.5738 17.1214C41.9018 17.1214 42.1218 17.1654 42.2338 17.2534C42.3538 17.3334 42.4098 17.4294 42.4018 17.5414C42.4018 17.6454 42.3778 17.7414 42.3298 17.8294C42.2898 17.9094 42.2698 17.9494 42.2698 17.9494C42.2698 17.9494 42.2338 17.9894 42.1618 18.0694C42.0978 18.1414 41.9778 18.2294 41.8018 18.3334C41.6258 18.4374 41.3818 18.5334 41.0698 18.6214C40.7578 18.7014 40.3578 18.7454 39.8698 18.7534C39.3978 18.7614 39.0018 18.6974 38.6818 18.5614C38.3618 18.4254 38.0978 18.2494 37.8898 18.0334C37.6818 17.8094 37.5218 17.5774 37.4098 17.3374C37.3058 17.0894 37.2298 16.8614 37.1818 16.6534C37.1418 16.4374 37.1218 16.2694 37.1218 16.1494C37.1218 16.0294 37.1298 15.8734 37.1458 15.6814C37.1698 15.4894 37.2218 15.2894 37.3018 15.0814C37.3898 14.8654 37.5218 14.6614 37.6978 14.4694C37.8738 14.2774 38.1138 14.1214 38.4178 14.0014C38.7298 13.8814 39.1258 13.8174 39.6058 13.8094C40.2058 13.8014 40.6738 13.8534 41.0098 13.9654C41.3458 14.0774 41.5898 14.2134 41.7418 14.3734C41.8938 14.5334 41.9858 14.6854 42.0178 14.8294C42.0578 14.9734 42.0778 15.0734 42.0778 15.1294ZM39.0178 16.1374C39.5058 16.0974 39.8698 15.9934 40.1098 15.8254C40.3498 15.6574 40.4898 15.4694 40.5298 15.2614C40.5698 15.0534 40.5298 14.8774 40.4098 14.7334C40.2978 14.5814 40.1258 14.5134 39.8938 14.5294C39.6618 14.5374 39.4858 14.6254 39.3658 14.7934C39.2458 14.9534 39.1618 15.1414 39.1138 15.3574C39.0658 15.5654 39.0378 15.7494 39.0298 15.9094C39.0218 16.0614 39.0178 16.1374 39.0178 16.1374ZM45.4551 13.7974C45.8551 13.7894 46.1951 13.8254 46.4751 13.9054C46.7551 13.9774 46.9871 14.0654 47.1711 14.1694C47.3551 14.2734 47.4991 14.3654 47.6031 14.4454C47.7071 14.5254 47.7831 14.5654 47.8311 14.5654C47.9191 14.5734 47.9831 14.6174 48.0231 14.6974C48.0631 14.7694 48.0831 14.8054 48.0831 14.8054C48.0831 14.8054 48.0951 14.8854 48.1191 15.0454C48.1431 15.2054 48.1711 15.4094 48.2031 15.6574C48.2431 15.9054 48.2791 16.1654 48.3111 16.4374C48.3431 16.7094 48.3711 16.9654 48.3951 17.2054C48.4191 17.4454 48.4311 17.6334 48.4311 17.7694C48.4311 17.9934 48.4151 18.1734 48.3831 18.3094C48.3591 18.4454 48.2791 18.5494 48.1431 18.6214C48.0071 18.6854 47.7831 18.7294 47.4711 18.7534C47.2391 18.7694 47.0711 18.7654 46.9671 18.7414C46.8631 18.7174 46.7991 18.6894 46.7751 18.6574C46.7511 18.6254 46.7391 18.6094 46.7391 18.6094C46.6671 18.6654 46.5471 18.7054 46.3791 18.7294C46.2191 18.7454 46.0671 18.7534 45.9231 18.7534C45.7791 18.7534 45.7071 18.7534 45.7071 18.7534C45.7071 18.7534 45.6151 18.7414 45.4311 18.7174C45.2471 18.6854 45.0191 18.6254 44.7471 18.5374C44.4831 18.4414 44.2151 18.3014 43.9431 18.1174C43.6791 17.9254 43.4591 17.6734 43.2831 17.3614C43.1071 17.0414 43.0231 16.6454 43.0311 16.1734C43.0391 15.7014 43.1271 15.3174 43.2951 15.0214C43.4631 14.7174 43.6671 14.4814 43.9071 14.3134C44.1471 14.1454 44.3831 14.0254 44.6151 13.9534C44.8551 13.8814 45.0551 13.8374 45.2151 13.8214C45.3751 13.8054 45.4551 13.7974 45.4551 13.7974ZM46.3551 15.0334C46.3151 14.9774 46.2271 14.9174 46.0911 14.8534C45.9631 14.7814 45.8391 14.7214 45.7191 14.6734C45.6071 14.6254 45.5511 14.6094 45.5511 14.6254C45.5511 14.6334 45.5071 14.7014 45.4191 14.8294C45.3391 14.9494 45.2551 15.1294 45.1671 15.3694C45.0871 15.6014 45.0431 15.8814 45.0351 16.2094C45.0271 16.5374 45.0711 16.8214 45.1671 17.0614C45.2631 17.3014 45.3791 17.4854 45.5151 17.6134C45.6591 17.7414 45.7911 17.8054 45.9111 17.8054C45.9991 17.8054 46.0831 17.7654 46.1631 17.6854C46.2431 17.5974 46.3111 17.5014 46.3671 17.3974C46.4231 17.2854 46.4671 17.1894 46.4991 17.1094C46.5311 17.0294 46.5471 16.9894 46.5471 16.9894L46.3551 15.0334ZM52.9685 10.9294C52.9685 10.9294 53.0165 10.9374 53.1125 10.9534C53.2165 10.9614 53.3325 10.9854 53.4605 11.0254C53.5885 11.0574 53.7045 11.1134 53.8085 11.1934C53.9205 11.2654 53.9805 11.3694 53.9885 11.5054C53.9965 11.5934 54.0085 11.7854 54.0245 12.0814C54.0405 12.3694 54.0565 12.7134 54.0725 13.1134C54.0965 13.5134 54.1165 13.9294 54.1325 14.3614C54.1565 14.7854 54.1765 15.1854 54.1925 15.5614C54.2085 15.9294 54.2205 16.2294 54.2285 16.4614C54.2445 16.6934 54.2525 16.8094 54.2525 16.8094C54.2525 16.8094 54.2485 16.8574 54.2405 16.9534C54.2405 17.0494 54.2165 17.1694 54.1685 17.3134C54.1285 17.4574 54.0525 17.5974 53.9405 17.7334C53.7005 18.0294 53.3965 18.2734 53.0285 18.4654C52.6605 18.6574 52.1565 18.7534 51.5165 18.7534C51.0925 18.7534 50.6845 18.6734 50.2925 18.5134C49.9085 18.3534 49.5925 18.1014 49.3445 17.7574C49.1045 17.4054 48.9885 16.9494 48.9965 16.3894C49.0045 15.9654 49.0965 15.5934 49.2725 15.2734C49.4565 14.9534 49.6965 14.6894 49.9925 14.4814C50.2885 14.2654 50.6165 14.1054 50.9765 14.0014C51.3445 13.8974 51.7125 13.8454 52.0805 13.8454L51.9965 11.7694C51.9965 11.7694 51.9885 11.7334 51.9725 11.6614C51.9565 11.5814 51.9645 11.4894 51.9965 11.3854C52.0365 11.2814 52.1285 11.1854 52.2725 11.0974C52.4165 11.0094 52.6485 10.9534 52.9685 10.9294ZM52.1165 14.8894C51.9325 14.8734 51.7565 14.9414 51.5885 15.0934C51.4205 15.2454 51.2805 15.4414 51.1685 15.6814C51.0645 15.9134 51.0125 16.1454 51.0125 16.3774C51.0125 16.7214 51.0685 17.0174 51.1805 17.2654C51.3005 17.5134 51.4565 17.6374 51.6485 17.6374C51.7765 17.6374 51.8845 17.5854 51.9725 17.4814C52.0605 17.3774 52.1285 17.2734 52.1765 17.1694C52.2245 17.0574 52.2485 17.0014 52.2485 17.0014L52.1165 14.8894ZM55.399 17.9494C55.399 17.9414 55.367 17.8934 55.303 17.8054C55.247 17.7094 55.179 17.5534 55.099 17.3374C55.019 17.1134 54.943 16.8054 54.871 16.4134C54.799 16.0134 54.743 15.5094 54.703 14.9014C54.687 14.5814 54.731 14.3534 54.835 14.2174C54.947 14.0814 55.087 13.9974 55.255 13.9654C55.423 13.9254 55.583 13.9054 55.735 13.9054C55.735 13.9054 55.779 13.9054 55.867 13.9054C55.963 13.8974 56.071 13.9054 56.191 13.9294C56.311 13.9454 56.415 13.9974 56.503 14.0854C56.599 14.1654 56.651 14.2934 56.659 14.4694C56.667 14.6134 56.675 14.8094 56.683 15.0574C56.691 15.3054 56.703 15.5734 56.719 15.8614C56.743 16.1414 56.779 16.4134 56.827 16.6774C56.875 16.9414 56.935 17.1614 57.007 17.3374C57.087 17.5054 57.187 17.5974 57.307 17.6134C57.427 17.6294 57.507 17.5614 57.547 17.4094C57.587 17.2494 57.599 17.0494 57.583 16.8094C57.575 16.5694 57.551 16.3294 57.511 16.0894C57.479 15.8414 57.447 15.6334 57.415 15.4654C57.383 15.2974 57.367 15.2134 57.367 15.2134C57.367 15.2134 57.351 15.1654 57.319 15.0694C57.287 14.9654 57.275 14.8494 57.283 14.7214C57.291 14.5934 57.347 14.4774 57.451 14.3734C57.555 14.2694 57.739 14.2134 58.003 14.2054C58.363 14.1894 58.631 14.2254 58.807 14.3134C58.991 14.4014 59.115 14.5134 59.179 14.6494C59.251 14.7854 59.295 14.9254 59.311 15.0694C59.327 15.1494 59.355 15.3414 59.395 15.6454C59.443 15.9414 59.495 16.2934 59.551 16.7014C59.607 17.1014 59.651 17.5174 59.683 17.9494C59.715 18.3734 59.727 18.7614 59.719 19.1134C59.711 19.4654 59.663 19.7334 59.575 19.9174C59.439 20.2134 59.251 20.4854 59.011 20.7334C58.779 20.9894 58.467 21.1854 58.075 21.3214C57.691 21.4654 57.199 21.5214 56.599 21.4894C56.151 21.4654 55.791 21.3934 55.519 21.2734C55.247 21.1614 55.043 21.0374 54.907 20.9014C54.771 20.7734 54.679 20.6574 54.631 20.5534C54.591 20.4574 54.571 20.4094 54.571 20.4094C54.571 20.4094 54.555 20.3654 54.523 20.2774C54.499 20.1894 54.495 20.0854 54.511 19.9654C54.535 19.8534 54.611 19.7534 54.739 19.6654C54.867 19.5854 55.091 19.5494 55.411 19.5574C55.731 19.5654 55.963 19.5934 56.107 19.6414C56.251 19.6974 56.343 19.7574 56.383 19.8214C56.423 19.8854 56.435 19.9414 56.419 19.9894C56.411 20.0374 56.407 20.0614 56.407 20.0614C56.407 20.0614 56.407 20.1054 56.407 20.1934C56.407 20.2814 56.435 20.3654 56.491 20.4454C56.555 20.5254 56.667 20.5614 56.827 20.5534C56.995 20.5374 57.175 20.4614 57.367 20.3254C57.559 20.1974 57.703 20.0014 57.799 19.7374C57.903 19.4734 57.895 19.1454 57.775 18.7534C57.775 18.7534 57.699 18.7654 57.547 18.7894C57.395 18.8134 57.195 18.8134 56.947 18.7894C56.707 18.7734 56.447 18.7054 56.167 18.5854C55.895 18.4574 55.639 18.2454 55.399 17.9494ZM62.334 12.7054L62.406 16.0414C62.406 16.0414 62.406 16.0454 62.406 16.0534C62.406 16.0694 62.39 16.1134 62.358 16.1854C62.326 16.2494 62.242 16.3134 62.106 16.3774C61.978 16.4414 61.766 16.4774 61.47 16.4854C61.454 16.4854 61.434 16.4854 61.41 16.4854C61.106 16.4854 60.882 16.4374 60.738 16.3414C60.594 16.2374 60.498 16.1374 60.45 16.0414C60.41 15.9374 60.39 15.8854 60.39 15.8854V15.8974L60.33 12.4894C60.33 12.4894 60.33 12.4854 60.33 12.4774C60.33 12.4534 60.342 12.4094 60.366 12.3454C60.398 12.2734 60.47 12.2054 60.582 12.1414C60.702 12.0774 60.89 12.0454 61.146 12.0454C61.202 12.0454 61.258 12.0454 61.314 12.0454C61.65 12.0614 61.89 12.1254 62.034 12.2374C62.178 12.3414 62.262 12.4454 62.286 12.5494C62.318 12.6454 62.334 12.6974 62.334 12.7054ZM61.386 17.0614C61.41 17.0614 61.43 17.0614 61.446 17.0614C61.886 17.0614 62.17 17.1294 62.298 17.2654C62.434 17.3934 62.518 17.6174 62.55 17.9374C62.558 18.0014 62.562 18.0574 62.562 18.1054C62.562 18.3614 62.482 18.5334 62.322 18.6214C62.162 18.7094 61.89 18.7534 61.506 18.7534C61.226 18.7534 61.018 18.7094 60.882 18.6214C60.746 18.5254 60.654 18.3974 60.606 18.2374C60.566 18.0694 60.542 17.8774 60.534 17.6614C60.534 17.6534 60.534 17.6414 60.534 17.6254C60.534 17.4494 60.578 17.3214 60.666 17.2414C60.754 17.1614 60.854 17.1134 60.966 17.0974C61.086 17.0734 61.19 17.0614 61.278 17.0614C61.302 17.0614 61.326 17.0614 61.35 17.0614C61.374 17.0614 61.386 17.0614 61.386 17.0614Z" fill="#204944"/>
<defs>
<filter id="filter0_d_2023_79" x="0" y="0" width="71.0001" height="41.9988" filterUnits="userSpaceOnUse" color-interpolation-filters="sRGB">
<feFlood flood-opacity="0" result="BackgroundImageFix"/>
<feColorMatrix in="SourceAlpha" type="matrix" values="0 0 0 0 0 0 0 0 0 0 0 0 0 0 0 0 0 0 127 0" result="hardAlpha"/>
<feOffset dy="4"/>
<feGaussianBlur stdDeviation="2"/>
<feComposite in2="hardAlpha" operator="out"/>
<feColorMatrix type="matrix" values="0 0 0 0 0 0 0 0 0 0 0 0 0 0 0 0 0 0 0.25 0"/>
<feBlend mode="normal" in2="BackgroundImageFix" result="effect1_dropShadow_2023_79"/>
<feBlend mode="normal" in="SourceGraphic" in2="effect1_dropShadow_2023_79" result="shape"/>
</filter>
</defs>
</svg>
