<svg width="71" height="42" viewBox="0 0 71 42" fill="none" xmlns="http://www.w3.org/2000/svg">
<g filter="url(#filter0_d_2020_324)">
<path d="M5.60842 32.8373C3.1129 34.2845 9.10216 25.6016 9.10216 25.6016V4.37668L13.5941 1H61.0091L66.0001 3.8943V25.6016L61.0091 28.0135H13.5941C13.5941 28.0135 8.10395 31.3902 5.60842 32.8373Z" fill="#EAE9E9"/>
<path d="M9.10216 25.6016L9.92533 26.1694L10.1022 25.913V25.6016H9.10216ZM5.60842 32.8373L5.10677 31.9722L5.10677 31.9722L5.60842 32.8373ZM13.5941 28.0135V27.0135H13.3112L13.0702 27.1617L13.5941 28.0135ZM61.0091 28.0135V29.0135H61.238L61.4442 28.9138L61.0091 28.0135ZM66.0001 25.6016L66.4352 26.5019L67.0001 26.2289V25.6016H66.0001ZM66.0001 3.8943H67.0001V3.31822L66.5018 3.02923L66.0001 3.8943ZM61.0091 1L61.5107 0.13493L61.2781 0H61.0091V1ZM13.5941 1V0H13.2602L12.9932 0.20066L13.5941 1ZM9.10216 4.37668L8.50128 3.57734L8.10216 3.87737V4.37668H9.10216ZM9.10216 25.6016C8.27899 25.0338 8.27894 25.0338 8.27886 25.0339C8.2788 25.034 8.2787 25.0342 8.27859 25.0343C8.27837 25.0347 8.27805 25.0351 8.27764 25.0357C8.27683 25.0369 8.27566 25.0386 8.27414 25.0408C8.27109 25.0452 8.26663 25.0517 8.26082 25.0602C8.24919 25.0771 8.23214 25.1019 8.21012 25.1341C8.16607 25.1985 8.10209 25.2924 8.02172 25.411C7.86103 25.6483 7.63459 25.9851 7.3708 26.3847C6.84441 27.182 6.16429 28.2365 5.56036 29.2503C4.97234 30.2374 4.40491 31.27 4.15617 31.9912C4.09247 32.1759 4.03207 32.3887 4.00963 32.6025C3.99201 32.7704 3.96816 33.1809 4.24542 33.5463C4.59871 34.012 5.11925 34.0289 5.40454 33.9803C5.67355 33.9344 5.91901 33.8132 6.11008 33.7024L5.60842 32.8373L5.10677 31.9722C4.9859 32.0423 4.9857 32.0228 5.06828 32.0088C5.16714 31.9919 5.56046 31.9707 5.8387 32.3374C5.94746 32.4808 5.98151 32.6185 5.99281 32.6906C6.00413 32.7628 5.99902 32.8083 5.9987 32.8113C5.99843 32.8139 6.00529 32.7639 6.04688 32.6433C6.21925 32.1435 6.68123 31.2766 7.27858 30.2739C7.86002 29.2979 8.52125 28.2721 9.03986 27.4866C9.29857 27.0947 9.52055 26.7645 9.67764 26.5326C9.75617 26.4167 9.81843 26.3254 9.8609 26.2633C9.88213 26.2322 9.89841 26.2085 9.90929 26.1927C9.91474 26.1847 9.91883 26.1788 9.92152 26.1749C9.92287 26.1729 9.92386 26.1715 9.9245 26.1706C9.92482 26.1701 9.92505 26.1698 9.92518 26.1696C9.92525 26.1695 9.92529 26.1694 9.92532 26.1694C9.92534 26.1693 9.92533 26.1694 9.10216 25.6016ZM5.60842 32.8373L6.11008 33.7024C7.36829 32.9727 9.37333 31.7615 11.0569 30.737C11.9002 30.2238 12.6653 29.756 13.2196 29.4164C13.4968 29.2466 13.7213 29.1089 13.8765 29.0136C13.9542 28.9659 14.0145 28.9289 14.0554 28.9037C14.0759 28.8912 14.0915 28.8816 14.102 28.8751C14.1073 28.8719 14.1113 28.8694 14.1139 28.8678C14.1153 28.8669 14.1163 28.8663 14.117 28.8659C14.1173 28.8657 14.1175 28.8655 14.1177 28.8654C14.1178 28.8654 14.1179 28.8653 14.1179 28.8653C14.118 28.8653 14.118 28.8653 13.5941 28.0135C13.0702 27.1617 13.0702 27.1617 13.0702 27.1617C13.0701 27.1617 13.0701 27.1618 13.07 27.1618C13.0698 27.1619 13.0696 27.1621 13.0693 27.1623C13.0686 27.1627 13.0676 27.1633 13.0663 27.1641C13.0637 27.1657 13.0598 27.1681 13.0546 27.1713C13.0441 27.1777 13.0286 27.1873 13.0083 27.1998C12.9676 27.2248 12.9075 27.2617 12.8301 27.3092C12.6754 27.4042 12.4515 27.5416 12.1749 27.711C11.6218 28.0498 10.8584 28.5166 10.0172 29.0284C8.33189 30.054 6.34408 31.2547 5.10677 31.9722L5.60842 32.8373ZM13.5941 28.0135V29.0135H61.0091V28.0135V27.0135H13.5941V28.0135ZM61.0091 28.0135L61.4442 28.9138L66.4352 26.5019L66.0001 25.6016L65.565 24.7012L60.574 27.1131L61.0091 28.0135ZM66.0001 25.6016H67.0001V3.8943H66.0001H65.0001V25.6016H66.0001ZM66.0001 3.8943L66.5018 3.02923L61.5107 0.13493L61.0091 1L60.5074 1.86507L65.4985 4.75937L66.0001 3.8943ZM61.0091 1V0H13.5941V1V2H61.0091V1ZM13.5941 1L12.9932 0.20066L8.50128 3.57734L9.10216 4.37668L9.70304 5.17602L14.195 1.79934L13.5941 1ZM9.10216 4.37668H8.10216V25.6016H9.10216H10.1022V4.37668H9.10216Z" fill="#204944"/>
</g>
<path d="M13.3001 15.508C13.3001 14.868 13.4121 14.284 13.6361 13.756C13.8601 13.22 14.1641 12.796 14.5481 12.484C14.9321 12.164 15.3561 12.004 15.8201 12.004C16.1641 12.004 16.4921 12.096 16.8041 12.28C17.1161 12.456 17.3921 12.708 17.6321 13.036C17.8721 13.356 18.0601 13.728 18.1961 14.152C18.3321 14.576 18.4001 15.028 18.4001 15.508C18.4001 15.988 18.3321 16.44 18.1961 16.864C18.0601 17.288 17.8721 17.664 17.6321 17.992C17.3921 18.312 17.1161 18.564 16.8041 18.748C16.4921 18.924 16.1641 19.012 15.8201 19.012C15.3561 19.012 14.9321 18.856 14.5481 18.544C14.1641 18.224 13.8601 17.8 13.6361 17.272C13.4121 16.744 13.3001 16.156 13.3001 15.508ZM15.1361 15.46C15.1361 15.924 15.1681 16.352 15.2321 16.744C15.2961 17.128 15.3841 17.436 15.4961 17.668C15.6081 17.892 15.7321 18.004 15.8681 18.004C16.0041 18.004 16.1281 17.892 16.2401 17.668C16.3521 17.436 16.4401 17.128 16.5041 16.744C16.5681 16.352 16.6001 15.924 16.6001 15.46C16.6001 14.988 16.5681 14.56 16.5041 14.176C16.4401 13.792 16.3521 13.484 16.2401 13.252C16.1281 13.02 16.0041 12.904 15.8681 12.904C15.7321 12.904 15.6081 13.02 15.4961 13.252C15.3841 13.484 15.2961 13.792 15.2321 14.176C15.1681 14.56 15.1361 14.988 15.1361 15.46ZM19.5594 18.364C19.5594 18.364 19.5514 18.288 19.5354 18.136C19.5194 17.976 19.4954 17.772 19.4634 17.524C19.4314 17.268 19.3914 16.996 19.3434 16.708C19.3034 16.42 19.2554 16.144 19.1994 15.88C19.1434 15.608 19.0834 15.376 19.0194 15.184C18.9394 14.944 18.9274 14.764 18.9834 14.644C19.0394 14.516 19.1234 14.428 19.2354 14.38C19.3554 14.332 19.4634 14.308 19.5594 14.308C19.6634 14.3 19.7154 14.296 19.7154 14.296C19.7154 14.296 19.7714 14.296 19.8834 14.296C19.9954 14.288 20.1274 14.3 20.2794 14.332C20.4314 14.364 20.5714 14.428 20.6994 14.524C20.8274 14.62 20.9074 14.772 20.9394 14.98C20.9874 15.252 21.0194 15.424 21.0354 15.496C21.0514 15.568 21.0594 15.596 21.0594 15.58C21.0674 15.556 21.0714 15.544 21.0714 15.544L22.4274 14.308C22.4274 14.308 22.4714 14.276 22.5594 14.212C22.6554 14.14 22.8034 14.088 23.0034 14.056C23.2114 14.016 23.4794 14.044 23.8074 14.14C24.0394 14.204 24.1714 14.288 24.2034 14.392C24.2434 14.496 24.2314 14.592 24.1674 14.68C24.1114 14.768 24.0634 14.832 24.0234 14.872C23.9994 14.896 23.9274 14.968 23.8074 15.088C23.6874 15.2 23.5434 15.336 23.3754 15.496C23.2154 15.648 23.0554 15.8 22.8954 15.952C22.7354 16.104 22.6034 16.232 22.4994 16.336C22.3954 16.44 22.3434 16.492 22.3434 16.492L24.2754 17.836C24.2754 17.836 24.3114 17.868 24.3834 17.932C24.4634 17.988 24.5354 18.064 24.5994 18.16C24.6634 18.256 24.6834 18.36 24.6594 18.472C24.6434 18.576 24.5354 18.676 24.3354 18.772C24.1354 18.868 23.9394 18.908 23.7474 18.892C23.5634 18.868 23.3954 18.82 23.2434 18.748C23.0994 18.676 22.9834 18.608 22.8954 18.544C22.8074 18.48 22.7634 18.448 22.7634 18.448L21.3954 17.5L21.4794 18.484C21.4794 18.484 21.4714 18.528 21.4554 18.616C21.4394 18.696 21.3674 18.78 21.2394 18.868C21.1194 18.956 20.9034 19 20.5914 19C20.2794 19 20.0514 18.948 19.9074 18.844C19.7634 18.732 19.6674 18.624 19.6194 18.52C19.5794 18.416 19.5594 18.364 19.5594 18.364ZM26.0572 20.332C25.7532 20.316 25.5332 20.272 25.3972 20.2C25.2692 20.128 25.1932 20.048 25.1692 19.96C25.1532 19.872 25.1572 19.792 25.1812 19.72C25.2052 19.656 25.2172 19.624 25.2172 19.624C25.2172 19.624 25.2372 19.584 25.2772 19.504C25.3252 19.424 25.3812 19.328 25.4452 19.216C25.5092 19.104 25.5692 19 25.6252 18.904C25.6812 18.808 25.7172 18.744 25.7332 18.712C25.7732 18.648 25.7932 18.584 25.7932 18.52C25.8012 18.456 25.8052 18.424 25.8052 18.424C25.8052 18.424 25.8012 18.4 25.7932 18.352C25.7932 18.296 25.8172 18.236 25.8652 18.172C25.9132 18.1 26.0132 18.04 26.1652 17.992C26.3252 17.944 26.5612 17.928 26.8732 17.944C27.1852 17.952 27.4092 17.996 27.5452 18.076C27.6892 18.156 27.7732 18.244 27.7972 18.34C27.8212 18.428 27.8212 18.508 27.7972 18.58C27.7812 18.652 27.7732 18.688 27.7732 18.688C27.7732 18.688 27.7412 18.756 27.6772 18.892C27.6132 19.028 27.5292 19.192 27.4252 19.384C27.3292 19.576 27.2252 19.756 27.1132 19.924C27.0172 20.068 26.8932 20.168 26.7412 20.224C26.5972 20.288 26.4572 20.32 26.3212 20.32C26.1932 20.328 26.1052 20.332 26.0572 20.332ZM31.9325 18.184C31.9325 18.096 31.9205 17.944 31.8965 17.728C31.8725 17.512 31.8405 17.268 31.8005 16.996C31.7685 16.716 31.7325 16.44 31.6925 16.168C31.6525 15.888 31.6085 15.64 31.5605 15.424C31.5205 15.2 31.4845 15.04 31.4525 14.944C31.3725 14.704 31.4165 14.536 31.5845 14.44C31.7605 14.336 32.0045 14.268 32.3165 14.236C32.6285 14.204 32.8525 14.228 32.9885 14.308C33.1325 14.38 33.2045 14.416 33.2045 14.416C33.3245 14.296 33.5205 14.212 33.7925 14.164C34.0725 14.116 34.3645 14.096 34.6685 14.104C35.0605 14.112 35.3445 14.172 35.5205 14.284C35.6965 14.396 35.7845 14.516 35.7845 14.644C35.7845 14.74 35.7725 14.812 35.7485 14.86C35.7245 14.908 35.6285 14.956 35.4605 15.004C35.3005 15.044 35.0085 15.116 34.5845 15.22C34.3365 15.276 34.1525 15.412 34.0325 15.628C33.9125 15.836 33.8365 16.08 33.8045 16.36C33.7805 16.632 33.7805 16.904 33.8045 17.176C33.8285 17.44 33.8565 17.664 33.8885 17.848C33.9205 18.024 33.9365 18.12 33.9365 18.136C33.9365 18.152 33.9405 18.208 33.9485 18.304C33.9645 18.392 33.9525 18.492 33.9125 18.604C33.8805 18.708 33.7965 18.8 33.6605 18.88C33.5245 18.96 33.3085 19 33.0125 19C32.7165 19 32.4925 18.96 32.3405 18.88C32.1885 18.792 32.0845 18.696 32.0285 18.592C31.9725 18.488 31.9405 18.396 31.9325 18.316C31.9325 18.228 31.9325 18.184 31.9325 18.184ZM41.1509 15.376C41.1269 15.776 41.0149 16.1 40.8149 16.348C40.6149 16.588 40.3709 16.772 40.0829 16.9C39.8029 17.02 39.5229 17.104 39.2429 17.152C38.9629 17.192 38.7269 17.212 38.5349 17.212C38.3509 17.212 38.2589 17.212 38.2589 17.212C38.3069 17.492 38.3749 17.692 38.4629 17.812C38.5509 17.932 38.6469 18 38.7509 18.016C38.8629 18.032 38.9669 18.024 39.0629 17.992C39.1589 17.952 39.2349 17.908 39.2909 17.86C39.3549 17.812 39.3869 17.788 39.3869 17.788C39.3869 17.788 39.4309 17.752 39.5189 17.68C39.6069 17.608 39.7429 17.54 39.9269 17.476C40.1189 17.404 40.3589 17.368 40.6469 17.368C40.9749 17.368 41.1949 17.412 41.3069 17.5C41.4269 17.58 41.4829 17.676 41.4749 17.788C41.4749 17.892 41.4509 17.988 41.4029 18.076C41.3629 18.156 41.3429 18.196 41.3429 18.196C41.3429 18.196 41.3069 18.236 41.2349 18.316C41.1709 18.388 41.0509 18.476 40.8749 18.58C40.6989 18.684 40.4549 18.78 40.1429 18.868C39.8309 18.948 39.4309 18.992 38.9429 19C38.4709 19.008 38.0749 18.944 37.7549 18.808C37.4349 18.672 37.1709 18.496 36.9629 18.28C36.7549 18.056 36.5949 17.824 36.4829 17.584C36.3789 17.336 36.3029 17.108 36.2549 16.9C36.2149 16.684 36.1949 16.516 36.1949 16.396C36.1949 16.276 36.2029 16.12 36.2189 15.928C36.2429 15.736 36.2949 15.536 36.3749 15.328C36.4629 15.112 36.5949 14.908 36.7709 14.716C36.9469 14.524 37.1869 14.368 37.4909 14.248C37.8029 14.128 38.1989 14.064 38.6789 14.056C39.2789 14.048 39.7469 14.1 40.0829 14.212C40.4189 14.324 40.6629 14.46 40.8149 14.62C40.9669 14.78 41.0589 14.932 41.0909 15.076C41.1309 15.22 41.1509 15.32 41.1509 15.376ZM38.0909 16.384C38.5789 16.344 38.9429 16.24 39.1829 16.072C39.4229 15.904 39.5629 15.716 39.6029 15.508C39.6429 15.3 39.6029 15.124 39.4829 14.98C39.3709 14.828 39.1989 14.76 38.9669 14.776C38.7349 14.784 38.5589 14.872 38.4389 15.04C38.3189 15.2 38.2349 15.388 38.1869 15.604C38.1389 15.812 38.1109 15.996 38.1029 16.156C38.0949 16.308 38.0909 16.384 38.0909 16.384ZM44.7202 17.08C44.1202 17.064 43.6522 17.004 43.3162 16.9C42.9802 16.796 42.7402 16.672 42.5962 16.528C42.4602 16.384 42.3762 16.244 42.3442 16.108C42.3122 15.964 42.2962 15.852 42.2962 15.772C42.2962 15.692 42.3082 15.568 42.3322 15.4C42.3562 15.232 42.4322 15.056 42.5602 14.872C42.6882 14.688 42.9082 14.528 43.2202 14.392C43.5402 14.256 43.9922 14.18 44.5762 14.164C45.2162 14.148 45.7082 14.184 46.0522 14.272C46.3962 14.36 46.6402 14.464 46.7842 14.584C46.9362 14.704 47.0282 14.812 47.0602 14.908C47.0922 14.996 47.1082 15.04 47.1082 15.04C47.1082 15.144 47.0962 15.252 47.0722 15.364C47.0482 15.468 46.9762 15.556 46.8562 15.628C46.7442 15.692 46.5482 15.72 46.2682 15.712C46.0442 15.704 45.8762 15.684 45.7642 15.652C45.6522 15.62 45.5682 15.584 45.5122 15.544C45.4642 15.496 45.4122 15.448 45.3562 15.4C45.3082 15.352 45.2322 15.312 45.1282 15.28C45.0322 15.248 44.8762 15.228 44.6602 15.22C44.3962 15.212 44.1962 15.232 44.0602 15.28C43.9322 15.32 43.8442 15.372 43.7962 15.436C43.7562 15.5 43.7322 15.556 43.7242 15.604C43.7242 15.644 43.7242 15.664 43.7242 15.664C43.7242 15.664 43.7322 15.696 43.7482 15.76C43.7722 15.824 43.8522 15.888 43.9882 15.952C44.1322 16.016 44.3882 16.052 44.7562 16.06C45.4522 16.084 45.9842 16.152 46.3522 16.264C46.7282 16.368 46.9922 16.492 47.1442 16.636C47.3042 16.78 47.3962 16.924 47.4202 17.068C47.4522 17.204 47.4682 17.312 47.4682 17.392C47.4682 17.472 47.4402 17.596 47.3842 17.764C47.3362 17.932 47.2282 18.108 47.0602 18.292C46.8922 18.476 46.6322 18.636 46.2802 18.772C45.9362 18.908 45.4722 18.984 44.8882 19C44.2562 19.016 43.7642 18.98 43.4122 18.892C43.0682 18.804 42.8202 18.7 42.6682 18.58C42.5242 18.46 42.4362 18.356 42.4042 18.268C42.3722 18.172 42.3562 18.124 42.3562 18.124C42.3562 18.012 42.3682 17.904 42.3922 17.8C42.4242 17.696 42.4962 17.612 42.6082 17.548C42.7282 17.476 42.9242 17.444 43.1962 17.452C43.4282 17.46 43.5962 17.48 43.7002 17.512C43.8122 17.544 43.8962 17.584 43.9522 17.632C44.0082 17.672 44.0602 17.716 44.1082 17.764C44.1562 17.812 44.2322 17.852 44.3362 17.884C44.4402 17.916 44.5962 17.936 44.8042 17.944C45.0682 17.952 45.2642 17.936 45.3922 17.896C45.5282 17.848 45.6202 17.792 45.6682 17.728C45.7162 17.664 45.7402 17.612 45.7402 17.572C45.7402 17.524 45.7402 17.5 45.7402 17.5C45.7402 17.5 45.7322 17.468 45.7162 17.404C45.7002 17.332 45.6202 17.264 45.4762 17.2C45.3402 17.128 45.0882 17.088 44.7202 17.08ZM52.8228 15.376C52.7988 15.776 52.6868 16.1 52.4868 16.348C52.2868 16.588 52.0428 16.772 51.7548 16.9C51.4748 17.02 51.1948 17.104 50.9148 17.152C50.6348 17.192 50.3988 17.212 50.2068 17.212C50.0228 17.212 49.9308 17.212 49.9308 17.212C49.9788 17.492 50.0468 17.692 50.1348 17.812C50.2228 17.932 50.3188 18 50.4228 18.016C50.5348 18.032 50.6388 18.024 50.7348 17.992C50.8308 17.952 50.9068 17.908 50.9628 17.86C51.0268 17.812 51.0588 17.788 51.0588 17.788C51.0588 17.788 51.1028 17.752 51.1908 17.68C51.2788 17.608 51.4148 17.54 51.5988 17.476C51.7908 17.404 52.0308 17.368 52.3188 17.368C52.6468 17.368 52.8668 17.412 52.9788 17.5C53.0988 17.58 53.1548 17.676 53.1468 17.788C53.1468 17.892 53.1228 17.988 53.0748 18.076C53.0348 18.156 53.0148 18.196 53.0148 18.196C53.0148 18.196 52.9788 18.236 52.9068 18.316C52.8428 18.388 52.7228 18.476 52.5468 18.58C52.3708 18.684 52.1268 18.78 51.8148 18.868C51.5028 18.948 51.1028 18.992 50.6148 19C50.1428 19.008 49.7468 18.944 49.4268 18.808C49.1068 18.672 48.8428 18.496 48.6348 18.28C48.4268 18.056 48.2668 17.824 48.1548 17.584C48.0508 17.336 47.9748 17.108 47.9268 16.9C47.8868 16.684 47.8668 16.516 47.8668 16.396C47.8668 16.276 47.8748 16.12 47.8908 15.928C47.9148 15.736 47.9668 15.536 48.0468 15.328C48.1348 15.112 48.2668 14.908 48.4428 14.716C48.6188 14.524 48.8588 14.368 49.1628 14.248C49.4748 14.128 49.8708 14.064 50.3508 14.056C50.9508 14.048 51.4188 14.1 51.7548 14.212C52.0908 14.324 52.3348 14.46 52.4868 14.62C52.6388 14.78 52.7308 14.932 52.7628 15.076C52.8028 15.22 52.8228 15.32 52.8228 15.376ZM49.7628 16.384C50.2508 16.344 50.6148 16.24 50.8548 16.072C51.0948 15.904 51.2348 15.716 51.2748 15.508C51.3148 15.3 51.2748 15.124 51.1548 14.98C51.0428 14.828 50.8708 14.76 50.6388 14.776C50.4068 14.784 50.2308 14.872 50.1108 15.04C49.9908 15.2 49.9068 15.388 49.8588 15.604C49.8108 15.812 49.7828 15.996 49.7748 16.156C49.7668 16.308 49.7628 16.384 49.7628 16.384ZM53.7881 12.448C53.7801 12.248 53.8401 12.088 53.9681 11.968C54.0961 11.84 54.3801 11.764 54.8201 11.74C55.1161 11.724 55.3321 11.76 55.4681 11.848C55.6041 11.936 55.6881 12.028 55.7201 12.124C55.7601 12.212 55.7801 12.256 55.7801 12.256L55.8521 13.324C55.8521 13.324 55.9161 13.324 56.0441 13.324C56.1801 13.324 56.3321 13.34 56.5001 13.372C56.6761 13.396 56.8281 13.448 56.9561 13.528C57.0921 13.608 57.1601 13.732 57.1601 13.9C57.1601 14.068 57.0961 14.192 56.9681 14.272C56.8401 14.352 56.6921 14.408 56.5241 14.44C56.3561 14.464 56.2041 14.476 56.0681 14.476C55.9401 14.476 55.8761 14.476 55.8761 14.476C55.8761 14.476 55.8761 14.568 55.8761 14.752C55.8841 14.928 55.8881 15.16 55.8881 15.448C55.8881 15.728 55.8921 16.028 55.9001 16.348C55.9081 16.668 55.9121 16.976 55.9121 17.272C55.9121 17.56 55.9121 17.804 55.9121 18.004C55.9201 18.196 55.9241 18.308 55.9241 18.34C55.9241 18.396 55.9041 18.476 55.8641 18.58C55.8321 18.684 55.7401 18.78 55.5881 18.868C55.4441 18.956 55.2041 19 54.8681 19C54.6201 19 54.4281 18.972 54.2921 18.916C54.1561 18.852 54.0561 18.784 53.9921 18.712C53.9361 18.632 53.9041 18.564 53.8961 18.508C53.8881 18.444 53.8841 18.412 53.8841 18.412L53.7881 12.448ZM59.7782 12.952L59.8502 16.288C59.8502 16.288 59.8502 16.292 59.8502 16.3C59.8502 16.316 59.8342 16.36 59.8022 16.432C59.7702 16.496 59.6862 16.56 59.5502 16.624C59.4222 16.688 59.2102 16.724 58.9142 16.732C58.8982 16.732 58.8782 16.732 58.8542 16.732C58.5502 16.732 58.3262 16.684 58.1822 16.588C58.0382 16.484 57.9422 16.384 57.8942 16.288C57.8542 16.184 57.8342 16.132 57.8342 16.132V16.144L57.7742 12.736C57.7742 12.736 57.7742 12.732 57.7742 12.724C57.7742 12.7 57.7862 12.656 57.8102 12.592C57.8422 12.52 57.9142 12.452 58.0262 12.388C58.1462 12.324 58.3342 12.292 58.5902 12.292C58.6462 12.292 58.7022 12.292 58.7582 12.292C59.0942 12.308 59.3342 12.372 59.4782 12.484C59.6222 12.588 59.7062 12.692 59.7302 12.796C59.7622 12.892 59.7782 12.944 59.7782 12.952ZM58.8302 17.308C58.8542 17.308 58.8742 17.308 58.8902 17.308C59.3302 17.308 59.6142 17.376 59.7422 17.512C59.8782 17.64 59.9622 17.864 59.9942 18.184C60.0022 18.248 60.0062 18.304 60.0062 18.352C60.0062 18.608 59.9262 18.78 59.7662 18.868C59.6062 18.956 59.3342 19 58.9502 19C58.6702 19 58.4622 18.956 58.3262 18.868C58.1902 18.772 58.0982 18.644 58.0502 18.484C58.0102 18.316 57.9862 18.124 57.9782 17.908C57.9782 17.9 57.9782 17.888 57.9782 17.872C57.9782 17.696 58.0222 17.568 58.1102 17.488C58.1982 17.408 58.2982 17.36 58.4102 17.344C58.5302 17.32 58.6342 17.308 58.7222 17.308C58.7462 17.308 58.7702 17.308 58.7942 17.308C58.8182 17.308 58.8302 17.308 58.8302 17.308Z" fill="#204944"/>
<defs>
<filter id="filter0_d_2020_324" x="0" y="0" width="71.0001" height="41.9988" filterUnits="userSpaceOnUse" color-interpolation-filters="sRGB">
<feFlood flood-opacity="0" result="BackgroundImageFix"/>
<feColorMatrix in="SourceAlpha" type="matrix" values="0 0 0 0 0 0 0 0 0 0 0 0 0 0 0 0 0 0 127 0" result="hardAlpha"/>
<feOffset dy="4"/>
<feGaussianBlur stdDeviation="2"/>
<feComposite in2="hardAlpha" operator="out"/>
<feColorMatrix type="matrix" values="0 0 0 0 0 0 0 0 0 0 0 0 0 0 0 0 0 0 0.25 0"/>
<feBlend mode="normal" in2="BackgroundImageFix" result="effect1_dropShadow_2020_324"/>
<feBlend mode="normal" in="SourceGraphic" in2="effect1_dropShadow_2020_324" result="shape"/>
</filter>
</defs>
</svg>
