<svg width="160" height="160" viewBox="0 0 160 160" fill="none" xmlns="http://www.w3.org/2000/svg">
<g clip-path="url(#clip0_2013_301)">
<path d="M91 6C83.1338 10.4565 80.8078 15.2966 78.5 26" stroke="#267E3F" stroke-width="10" stroke-linecap="round"/>
<mask id="mask0_2013_301" style="mask-type:alpha" maskUnits="userSpaceOnUse" x="0" y="25" width="160" height="132">
<path d="M160 91C160 127.451 124.183 157 80 157C35.8172 157 0 127.451 0 91C0 54.5492 35.8172 25 80 25C124.183 25 160 54.5492 160 91Z" fill="#CC3131"/>
</mask>
<g mask="url(#mask0_2013_301)">
<mask id="path-4-inside-1_2013_301" fill="white">
<path d="M-5.5 5.3913H65.5V171.826H-5.5V5.3913Z"/>
</mask>
<path d="M-5.5 5.3913H65.5V171.826H-5.5V5.3913Z" fill="#D64848"/>
<path d="M-5.5 5.3913C2.41449 5.3913 10.329 5.3913 18.2435 5.3913C33.2649 5.3913 48.2862 5.3913 63.3076 5.3913C64.0384 5.3913 64.7692 5.39131 65.5 5.39132C65.4992 60.8696 65.4705 116.348 65.4138 171.826L65.5 171.74C41.8333 171.716 18.1667 171.686 -5.5 171.652L-5.32588 171.826C-5.25675 124.262 -5.16705 76.6985 -5.05676 29.1348C-5.03841 21.2203 -5.01949 13.3058 -5 5.3913C-5.33333 5.3913 -5.66667 5.3913 -6 5.3913C-5.98051 13.3058 -5.96159 21.2203 -5.94324 29.1348C-5.83295 76.6985 -5.74325 124.262 -5.67412 171.826L-5.67387 172L-5.5 172C18.1667 171.966 41.8333 171.937 65.5 171.912L65.5863 171.912L65.5862 171.826C65.5295 116.348 65.5008 60.8696 65.5 5.3913C64.7692 5.3913 64.0384 5.3913 63.3076 5.3913C48.2862 5.3913 33.2649 5.3913 18.2435 5.3913C10.329 5.3913 2.41449 5.3913 -5.5 5.3913ZM-5.5 5.3913H-6H-5H-5.5Z" fill="black" mask="url(#path-4-inside-1_2013_301)"/>
<path d="M170 99.1304C170 146.411 137.317 184.739 97 184.739C56.6832 184.739 24 146.411 24 99.1304C24 51.8501 56.6832 13.5217 97 13.5217C137.317 13.5217 170 51.8501 170 99.1304Z" fill="#DE5858"/>
<path d="M-8 114.701C65.7933 140.458 100.908 140.64 170 114" stroke="#204944" stroke-width="3" stroke-linejoin="round"/>
<path d="M97 135V136" stroke="#204944" stroke-width="2" stroke-linecap="round"/>
<path d="M63 134V136" stroke="#204944" stroke-width="2" stroke-linecap="round"/>
<path d="M79 138.5C79 139.052 79.4477 139.5 80 139.5C80.5523 139.5 81 139.052 81 138.5H80H79ZM80 135H79V138.5H80H81V135H80Z" fill="#204944"/>
<path d="M117 131L117.5 131.869C117.5 131.869 118 132.738 118 133.608C118 134.477 118 134.042 118 134.042C118 134.042 118 135.346 118 134.911" stroke="#204944" stroke-width="2" stroke-linecap="round" stroke-linejoin="round"/>
<path d="M135 127L135.5 127.652C135.5 127.652 136 128.304 136 128.956C136 129.608 136 129.282 136 129.282C136 129.282 136 130.259 136 129.933" stroke="#204944" stroke-width="2" stroke-linecap="round" stroke-linejoin="round"/>
<path d="M43 130L42.5 130.869C42.5 130.869 42 131.738 42 132.608C42 133.477 42 133.042 42 133.042C42 133.042 42 134.346 42 133.911" stroke="#204944" stroke-width="2" stroke-linecap="round" stroke-linejoin="round"/>
<path d="M27 126L26.5 126.652C26.5 126.652 26 127.304 26 127.956C26 128.608 26 128.282 26 128.282C26 128.282 26 129.259 26 128.933" stroke="#204944" stroke-width="2" stroke-linecap="round" stroke-linejoin="round"/>
<path d="M85 26C83.9065 25.4185 82.8534 24.8609 82.0452 24.4497C81.2224 24.0386 80.6209 23.8076 80 23.8076C79.3791 23.8076 78.7776 24.0386 77.9548 24.4497C77.1466 24.8609 76.0935 25.4185 75 26C73.8333 26.6333 72.725 27.2667 71.675 27.9C62.225 33.6 57.5 39.3 57.5 45C57.5 50.7 62.225 56.4 71.675 62.1C72.725 62.7333 73.8333 63.3667 75 64C76.0935 64.5815 77.1466 65.1391 77.9548 65.5503C78.7776 65.9614 79.3791 66.1924 80 66.1924C80.6209 66.1924 81.2224 65.9614 82.0452 65.5503C82.8534 65.1391 83.9065 64.5815 85 64C86.1667 63.3667 87.275 62.7333 88.325 62.1C97.775 56.4 102.5 50.7 102.5 45C102.5 39.3 97.775 33.6 88.325 27.9C87.275 27.2667 86.1667 26.6333 85 26Z" fill="#1CAD46"/>
</g>
<path d="M91.1175 96C83.483 96.5027 78.8576 96.4799 70.1175 96C70.1175 96 68.1175 108 80.6175 108C93.1175 108 91.1175 96 91.1175 96Z" fill="#204944" stroke="#204944" stroke-width="2"/>
<path d="M49 83C54.3277 80.3414 57.387 80.3253 63 83" stroke="#1C4540" stroke-width="10" stroke-linecap="round"/>
<path d="M109 83C103.672 80.3414 100.613 80.3253 95 83" stroke="#1C4540" stroke-width="10" stroke-linecap="round"/>
<path d="M77.5565 30.7515C78.3896 29.9407 79.1401 29.015 79.5691 27.9531C79.9981 26.8911 80.0714 25.7823 79.7412 24.7744C79.411 23.7666 78.6959 22.916 77.7217 22.3137C76.7475 21.7114 75.5948 21.4092 74.4435 21.2485C73.2274 21.0856 72.0197 20.9481 70.8203 20.8359C60.0254 19.8262 49.903 20.8693 40.453 23.9649C31.003 27.0606 22.2254 32.209 14.1203 39.41C13.2197 40.2101 12.3274 41.0356 11.4435 41.8864C10.6104 42.6972 9.85991 43.6229 9.43089 44.6848C9.00186 45.7468 8.92864 46.8556 9.2588 47.8635C9.58897 48.8713 10.3041 49.7219 11.2783 50.3242C12.2525 50.9265 13.4052 51.2287 14.5565 51.3895C15.7726 51.5523 16.9803 51.6898 18.1797 51.802C28.9746 52.8117 39.097 51.7687 48.547 48.673C57.997 45.5773 66.7746 40.4289 74.8797 33.2279C75.7803 32.4278 76.6726 31.6023 77.5565 30.7515Z" fill="#1B9E41"/>
<path d="M81.288 21.6688C80.1489 21.8984 79.0169 22.2669 78.0799 22.9227C77.1429 23.5785 76.4781 24.4658 76.2055 25.4883C75.9329 26.5109 76.0676 27.6114 76.5538 28.6466C77.04 29.6818 77.8383 30.5649 78.712 31.3312C79.631 32.1282 80.5569 32.8995 81.4897 33.6449C89.8849 40.354 98.8365 44.9761 108.345 47.511C109.094 47.7107 109.846 47.8974 110.602 48.0712L109.88 47.856C118.587 50.3986 127.868 51.2005 137.723 50.2616C138.912 50.1483 140.109 50.0097 141.314 49.8458C142.465 49.6827 143.616 49.3807 144.59 48.7805C145.564 48.1803 146.279 47.3331 146.61 46.3281C146.942 45.3232 146.871 44.2167 146.446 43.1549C146.021 42.0932 145.275 41.1652 144.448 40.3494C143.576 39.5003 142.697 38.6766 141.809 37.8782C134.447 31.2586 126.512 26.3797 118.001 23.2416L117.279 23.0264C116.537 22.8008 115.791 22.5882 115.042 22.3885C105.534 19.8536 95.4699 19.4058 84.849 21.045C83.6689 21.2272 82.4819 21.4351 81.288 21.6688Z" fill="#1B9E41"/>
</g>
<defs>
<clipPath id="clip0_2013_301">
<rect width="160" height="160" rx="2" fill="white"/>
</clipPath>
</defs>
</svg>
