<svg width="160" height="160" viewBox="0 0 160 160" fill="none" xmlns="http://www.w3.org/2000/svg">
<path d="M92 6C84.1338 10.4565 81.8078 15.2966 79.5 26" stroke="#267E3F" stroke-width="10" stroke-linecap="round"/>
<mask id="mask0_2015_117" style="mask-type:alpha" maskUnits="userSpaceOnUse" x="0" y="26" width="160" height="132">
<path d="M160 92C160 128.451 124.183 158 80 158C35.8172 158 0 128.451 0 92C0 55.5492 35.8172 26 80 26C124.183 26 160 55.5492 160 92Z" fill="#CC3131"/>
</mask>
<g mask="url(#mask0_2015_117)">
<mask id="path-4-inside-1_2015_117" fill="white">
<path d="M-5.5 6.3913H65.5V172.826H-5.5V6.3913Z"/>
</mask>
<path d="M-5.5 6.3913H65.5V172.826H-5.5V6.3913Z" fill="#D64848"/>
<path d="M-5.5 6.3913C2.41449 6.3913 10.329 6.3913 18.2435 6.3913C33.2649 6.3913 48.2862 6.3913 63.3076 6.3913C64.0384 6.3913 64.7692 6.3913 65.5 6.39131C65.4992 61.8696 65.4705 117.348 65.4138 172.826L65.5 172.74C41.8333 172.716 18.1667 172.686 -5.5 172.652L-5.32588 172.826C-5.25675 125.262 -5.16705 77.6985 -5.05676 30.1348C-5.03841 22.2203 -5.01949 14.3058 -5 6.3913C-5.33333 6.3913 -5.66667 6.3913 -6 6.3913C-5.98051 14.3058 -5.96159 22.2203 -5.94324 30.1348C-5.83295 77.6985 -5.74325 125.262 -5.67412 172.826L-5.67387 173L-5.5 173C18.1667 172.966 41.8333 172.936 65.5 172.912L65.5863 172.912L65.5862 172.826C65.5295 117.348 65.5008 61.8696 65.5 6.3913C64.7692 6.39129 64.0384 6.3913 63.3076 6.3913C48.2862 6.3913 33.2649 6.3913 18.2435 6.3913C10.329 6.3913 2.41449 6.3913 -5.5 6.3913ZM-5.5 6.3913H-6H-5H-5.5Z" fill="black" mask="url(#path-4-inside-1_2015_117)"/>
<path d="M170 100.13C170 147.411 137.317 185.739 97 185.739C56.6832 185.739 24 147.411 24 100.13C24 52.85 56.6832 14.5217 97 14.5217C137.317 14.5217 170 52.85 170 100.13Z" fill="#DE5858"/>
<path d="M101 78C101 78.0807 101 78.1613 101 79.8969C101 81.6324 101 85.0204 101 89" stroke="#204944" stroke-width="10" stroke-linecap="round"/>
<path d="M58 78C58 78.0807 58 78.1613 58 79.8969C58 81.6324 58 85.0204 58 89" stroke="#204944" stroke-width="10" stroke-linecap="round"/>
<path d="M-8 115.701C65.7933 141.458 100.908 141.64 170 115" stroke="#204944" stroke-width="3" stroke-linejoin="round"/>
<path d="M97 136V137" stroke="#204944" stroke-width="2" stroke-linecap="round"/>
<path d="M63 135V137" stroke="#204944" stroke-width="2" stroke-linecap="round"/>
<path d="M79 139.5C79 140.052 79.4477 140.5 80 140.5C80.5523 140.5 81 140.052 81 139.5H80H79ZM80 136H79V139.5H80H81V136H80Z" fill="#204944"/>
<path d="M117 132L117.5 132.869C117.5 132.869 118 133.738 118 134.608C118 135.477 118 135.042 118 135.042C118 135.042 118 136.346 118 135.911" stroke="#204944" stroke-width="2" stroke-linecap="round" stroke-linejoin="round"/>
<path d="M135 128L135.5 128.652C135.5 128.652 136 129.304 136 129.956C136 130.608 136 130.282 136 130.282C136 130.282 136 131.259 136 130.933" stroke="#204944" stroke-width="2" stroke-linecap="round" stroke-linejoin="round"/>
<path d="M43 131L42.5 131.869C42.5 131.869 42 132.738 42 133.608C42 134.477 42 134.042 42 134.042C42 134.042 42 135.346 42 134.911" stroke="#204944" stroke-width="2" stroke-linecap="round" stroke-linejoin="round"/>
<path d="M27 127L26.5 127.652C26.5 127.652 26 128.304 26 128.956C26 129.608 26 129.282 26 129.282C26 129.282 26 130.259 26 129.933" stroke="#204944" stroke-width="2" stroke-linecap="round" stroke-linejoin="round"/>
<ellipse cx="80.5" cy="107.5" rx="6.5" ry="9.5" fill="#204944"/>
<path d="M85 27C83.9065 26.4185 82.8534 25.8609 82.0452 25.4497C81.2224 25.0386 80.6209 24.8076 80 24.8076C79.3791 24.8076 78.7776 25.0386 77.9548 25.4497C77.1466 25.8609 76.0935 26.4185 75 27C75 27 75 27 75 27C73.8333 27.6333 72.725 28.2667 71.675 28.9C62.225 34.6 57.5 40.3 57.5 46C57.5 46 57.5 46 57.5 46C57.5 51.7 62.225 57.4 71.675 63.1C72.725 63.7333 73.8333 64.3667 75 65C76.0935 65.5815 77.1466 66.1391 77.9548 66.5503C78.7776 66.9614 79.3791 67.1924 80 67.1924C80.6209 67.1924 81.2224 66.9614 82.0452 66.5503C82.8534 66.1391 83.9065 65.5815 85 65C86.1667 64.3667 87.275 63.7333 88.325 63.1C97.775 57.4 102.5 51.7 102.5 46C102.5 46 102.5 46 102.5 46C102.5 40.3 97.775 34.6 88.325 28.9C87.275 28.2667 86.1667 27.6333 85 27Z" fill="#1CAD46"/>
</g>
<path d="M78.5565 30.7515C79.3896 29.9407 80.1401 29.015 80.5691 27.9531C80.9981 26.8911 81.0714 25.7823 80.7412 24.7744C80.411 23.7666 79.6959 22.916 78.7217 22.3137C77.7475 21.7114 76.5948 21.4092 75.4435 21.2485C75.4435 21.2485 75.4435 21.2485 75.4435 21.2485C74.2274 21.0856 73.0197 20.9481 71.8203 20.8359C61.0254 19.8262 50.903 20.8693 41.453 23.9649C32.003 27.0606 23.2254 32.209 15.1203 39.41C14.2197 40.2101 13.3274 41.0356 12.4435 41.8864C11.6104 42.6972 10.8599 43.6229 10.4309 44.6848C10.0019 45.7468 9.92864 46.8556 10.2588 47.8635C10.589 48.8713 11.3041 49.7219 12.2783 50.3242C13.2525 50.9265 14.4052 51.2287 15.5565 51.3895C15.5565 51.3895 15.5565 51.3895 15.5565 51.3895C16.7726 51.5523 17.9803 51.6898 19.1797 51.802C29.9746 52.8117 40.097 51.7687 49.547 48.673C58.997 45.5773 67.7746 40.4289 75.8797 33.2279C76.7803 32.4278 77.6726 31.6023 78.5565 30.7515Z" fill="#1B9E41"/>
<path d="M82.288 21.6688C81.1489 21.8984 80.0169 22.2669 79.0799 22.9227C78.1429 23.5785 77.4781 24.4658 77.2055 25.4883C76.9329 26.5109 77.0676 27.6114 77.5538 28.6466C78.04 29.6818 78.8383 30.5649 79.712 31.3312C79.712 31.3312 79.712 31.3312 79.712 31.3312C80.631 32.1282 81.5569 32.8995 82.4897 33.6449C90.8849 40.354 99.8365 44.9761 109.345 47.511C110.094 47.7107 110.846 47.8974 111.602 48.0712L110.88 47.856C119.587 50.3986 128.868 51.2005 138.723 50.2616C139.912 50.1483 141.109 50.0097 142.314 49.8458C143.465 49.6827 144.616 49.3807 145.59 48.7805C146.564 48.1803 147.279 47.333 147.61 46.3281C147.942 45.3232 147.871 44.2167 147.446 43.1549C147.021 42.0932 146.275 41.1652 145.448 40.3494C144.576 39.5003 143.697 38.6766 142.809 37.8782C135.447 31.2586 127.512 26.3797 119.001 23.2416L118.279 23.0264C117.537 22.8008 116.791 22.5882 116.042 22.3885C106.534 19.8536 96.4699 19.4058 85.849 21.045C84.6689 21.2272 83.4819 21.4351 82.288 21.6688Z" fill="#1B9E41"/>
</svg>
